<svg width="200" height="110" viewBox="0 0 200 110" fill="none" xmlns="http://www.w3.org/2000/svg">
    <path d="M43.6154 6.10352e-05C32.0479 6.08972e-05 20.9542 4.59525 12.7747 12.7748C4.59518 20.9542 1.01127e-06 32.0479 0 43.6154C-1.01127e-06 55.183 4.59518 66.2768 12.7747 74.4563C20.9542 82.6357 32.0479 87.2308 43.6154 87.2308V74.1463C35.5181 74.1463 27.7526 70.9297 22.0269 65.204C16.3013 59.4784 13.0847 51.7127 13.0847 43.6154C13.0847 35.5182 16.3013 27.7525 22.0269 22.027C27.7526 16.3014 35.5181 13.0846 43.6154 13.0846V6.10352e-05Z" fill="#D48901"/>
    <path d="M104.19 51.696C105.575 56.9705 103.957 52.7325 107.824 56.4577C108.794 57.3914 108.448 57.0318 113.634 58.087C118.819 59.142 124.187 58.6773 129.13 56.7449C134.074 54.8125 138.396 51.4895 141.611 47.151C144.825 42.8124 146.802 37.6311 147.32 32.1918C147.838 26.7526 146.876 21.2718 144.541 16.3684C142.206 11.4649 138.593 7.33396 134.109 4.4417C129.624 1.54944 124.448 0.0110759 119.163 0.000244141L119.138 13.0825C122.065 13.0884 124.932 13.9404 127.415 15.5422C129.898 17.1438 131.9 19.4315 133.192 22.1471C134.486 24.8627 135.018 27.8978 134.731 30.9102C134.445 33.9224 133.35 36.7918 131.57 39.1944C129.789 41.5972 127.395 43.4374 124.658 44.5076C121.92 45.5777 118.947 45.8352 116.076 45.2508C113.204 44.6665 110.547 43.2636 108.406 41.2005C106.264 39.1375 104.957 36.3595 104.19 33.4385V51.696Z" fill="#D48901"/>
    <path d="M43.6111 6.10352e-05H119.211V13.0847H43.6111V6.10352e-05Z" fill="#D48901"/>
    <path d="M43.6111 6.10352e-05H119.211V13.0847H43.6111V6.10352e-05Z" fill="#D48901"/>
    <path d="M43.6111 6.10352e-05H119.211V13.0847H43.6111V6.10352e-05Z" fill="#D48901"/>
    <path d="M38.0092 79.0317C38.0092 76.3334 40.1966 74.146 42.8948 74.146H82.0695C84.7679 74.146 86.9552 76.3334 86.9552 79.0317V82.345C86.9552 85.0433 84.7679 87.2307 82.0695 87.2307H42.8948C40.1966 87.2307 38.0092 85.0433 38.0092 82.345V79.0317Z" fill="#D48901"/>
    <path d="M38.0092 79.0317C38.0092 76.3334 40.1966 74.146 42.8948 74.146H82.0695C84.7679 74.146 86.9552 76.3334 86.9552 79.0317V82.345C86.9552 85.0433 84.7679 87.2307 82.0695 87.2307H42.8948C40.1966 87.2307 38.0092 85.0433 38.0092 82.345V79.0317Z" fill="#D48901"/>
    <path d="M38.0092 79.0317C38.0092 76.3334 40.1966 74.146 42.8948 74.146H82.0695C84.7679 74.146 86.9552 76.3334 86.9552 79.0317V82.345C86.9552 85.0433 84.7679 87.2307 82.0695 87.2307H42.8948C40.1966 87.2307 38.0092 85.0433 38.0092 82.345V79.0317Z" fill="#D48901"/>
    <path d="M115.82 51.8535C115.82 48.6418 113.217 46.0381 110.005 46.0381C106.793 46.0381 104.19 48.6418 104.19 51.8535V102.254C104.19 105.465 106.793 108.069 110.005 108.069C113.217 108.069 115.82 105.465 115.82 102.254V51.8535Z" fill="#D48901"/>
    <path d="M95.7357 33.6045C97.1775 32.0216 97.0767 29.5293 95.2388 28.4307C93.0847 27.1431 90.6903 26.2797 88.1845 25.9017C84.3935 25.3299 80.518 25.8951 77.0482 27.5258C73.5784 29.1565 70.6701 31.7795 68.6911 35.0632C66.7119 38.3467 65.751 42.1435 65.9298 45.9732C66.1085 49.803 67.4189 53.4938 69.6952 56.5787C71.9715 59.6638 75.1116 62.0045 78.7182 63.3049C82.3248 64.6054 86.236 64.8071 89.9573 63.8846C92.417 63.2749 94.7207 62.1921 96.7454 60.7095C98.473 59.4445 98.3411 56.9537 96.7581 55.5119C95.1752 54.0701 92.7365 54.2596 90.8561 55.2836C89.9888 55.7559 89.0604 56.1185 88.0917 56.3586C85.8589 56.912 83.5122 56.791 81.3482 56.0107C79.1843 55.2305 77.3002 53.826 75.9344 51.975C74.5686 50.124 73.7824 47.9096 73.6752 45.6117C73.5679 43.3138 74.1444 41.0359 75.3319 39.0656C76.5194 37.0955 78.2643 35.5217 80.3462 34.5432C82.4281 33.5649 84.7534 33.2257 87.028 33.5688C88.0149 33.7177 88.9731 33.9921 89.8805 34.3815C91.848 35.226 94.2939 35.1875 95.7357 33.6045Z" fill="#D48901"/>
    <path d="M200 17.2616C193.567 8.77754 184.251 2.93998 173.812 0.849225C163.371 -1.24153 152.527 0.558926 143.323 5.91123L152.092 20.993C157.614 17.7815 164.122 16.7013 170.385 17.9557C176.65 19.2102 182.238 22.7127 186.099 27.8031L200 17.2616Z" fill="#D48901"/>
    <path d="M126.306 63.26C129.536 69.6642 134.297 75.1728 140.165 79.2978C146.034 83.4227 152.829 86.0366 159.948 86.9079C167.069 87.7792 174.294 86.881 180.984 84.2929C187.673 81.7049 193.622 77.5067 198.302 72.0706L185.08 60.6885C182.272 63.9502 178.703 66.4691 174.688 68.0219C170.675 69.5748 166.34 70.1137 162.067 69.591C157.796 69.0681 153.719 67.4998 150.198 65.0248C146.676 62.5498 143.821 59.2447 141.882 55.4022L126.306 63.26Z" fill="#D48901"/>
    <path d="M28.7988 37.8843C30.2062 36.8618 32.1761 37.1738 33.1987 38.5812C34.2213 39.9887 33.9093 41.9586 32.5019 42.9811L22.8265 50.0106C21.4191 51.0332 19.4492 50.7211 18.4266 49.3137C17.4041 47.9063 17.7161 45.9364 19.1236 44.9139L28.7988 37.8843Z" fill="#CC0808"/>
    <path d="M19.0316 50.0791C17.6241 49.0565 17.3122 47.0866 18.3348 45.6792C19.3573 44.2717 21.3272 43.9598 22.7347 44.9823L32.1441 51.8187C33.5515 52.8413 33.8636 54.8112 32.841 56.2187C31.8185 57.6261 29.8486 57.938 28.4411 56.9155L19.0316 50.0791Z" fill="#00B2FF"/>
    <path d="M51.3198 53.3519C49.9124 54.3744 47.9425 54.0625 46.9199 52.655C45.8973 51.2476 46.2094 49.2777 47.6169 48.2551L57.2921 41.2256C58.6995 40.203 60.6694 40.515 61.692 41.9224C62.7146 43.3299 62.4025 45.2998 60.9952 46.3224L51.3198 53.3519Z" fill="#FFC500"/>
    <path d="M61.1021 41.1572C62.5096 42.1798 62.8216 44.1497 61.7991 45.5572C60.7765 46.9646 58.8066 47.2765 57.3991 46.254L47.9896 39.4176C46.5821 38.395 46.2702 36.4251 47.2928 35.0177C48.3153 33.6102 50.2852 33.2983 51.6927 34.3208L61.1021 41.1572Z" fill="#008000"/>
    <path d="M44.7811 30.5047L42.9386 30.0453C41.6296 29.7189 40.3038 30.5156 39.9774 31.8246L33.4581 57.9722C33.1317 59.2812 33.9283 60.607 35.2374 60.9334L37.0799 61.3928C38.3889 61.7192 39.7147 60.9226 40.0411 59.6135L46.5604 33.466C46.8868 32.1569 46.0902 30.8311 44.7811 30.5047Z" fill="#9B9B9B"/>
    <path d="M18.7507 91.1388C18.7507 91.1706 18.7491 91.2215 18.7459 91.2915C18.7427 91.3583 18.7411 91.4076 18.7411 91.4394C18.7411 91.6526 18.7507 91.8784 18.7697 92.117C18.7888 92.3555 18.8191 92.6179 18.8604 92.9042L18.388 92.9853C18.3371 92.5113 18.1352 92.1439 17.7821 91.8832C17.429 91.6191 16.963 91.4871 16.3842 91.4871C15.6462 91.4871 15.0736 91.7177 14.6665 92.179C14.2626 92.637 14.0605 93.2859 14.0605 94.1256C14.0605 95.0321 14.2896 95.7541 14.7476 96.2916C15.2088 96.8292 15.8243 97.098 16.594 97.098C17.0776 97.098 17.4894 96.9882 17.8298 96.7688C18.1733 96.5494 18.4517 96.2153 18.6647 95.7668L19.0846 95.9625C18.9573 96.2137 18.8461 96.4603 18.7507 96.702C18.6552 96.9406 18.5741 97.1775 18.5072 97.4129C18.1224 97.5688 17.7454 97.6865 17.3766 97.766C17.0108 97.8487 16.6577 97.89 16.3174 97.89C15.2104 97.89 14.3135 97.5624 13.6263 96.9071C12.9394 96.2519 12.5958 95.3963 12.5958 94.3403C12.5958 93.297 12.9553 92.4382 13.6741 91.7638C14.3962 91.0863 15.3107 90.7476 16.4175 90.7476C16.8151 90.7476 17.2047 90.7794 17.5864 90.843C17.9713 90.9067 18.3593 91.0052 18.7507 91.1388ZM21.3067 94.475C20.9871 94.475 20.7295 94.5919 20.5338 94.8257C20.3406 95.0571 20.244 95.3697 20.244 95.7633C20.244 96.2666 20.3513 96.6746 20.5661 96.9871C20.7831 97.2996 21.0647 97.4559 21.4106 97.4559C21.7445 97.4559 22.0105 97.3318 22.2085 97.0837C22.4089 96.8355 22.5091 96.4981 22.5091 96.071C22.5091 95.6035 22.3958 95.2206 22.1692 94.9223C21.9449 94.6242 21.6574 94.475 21.3067 94.475ZM21.3998 94.0993C21.9032 94.0993 22.3194 94.2687 22.6487 94.6074C22.9803 94.9438 23.1461 95.3613 23.1461 95.8599C23.1461 96.4085 22.9719 96.8713 22.6237 97.2483C22.2753 97.6229 21.8459 97.8101 21.3354 97.8101C20.8249 97.8101 20.4051 97.6384 20.0758 97.2948C19.7489 96.9513 19.5856 96.5171 19.5856 95.9923C19.5856 95.4674 19.7634 95.0214 20.1188 94.654C20.4765 94.2842 20.9037 94.0993 21.3998 94.0993ZM26.2377 94.7756C26.078 94.685 25.9265 94.6182 25.7834 94.5753C25.6402 94.5323 25.4958 94.5108 25.3504 94.5108C24.983 94.5108 24.6991 94.6254 24.4987 94.8544C24.2984 95.0834 24.1981 95.4066 24.1981 95.8241C24.1981 96.2678 24.2959 96.6209 24.4916 96.8833C24.6896 97.1433 24.9532 97.2733 25.2823 97.2733C25.4135 97.2733 25.5543 97.2483 25.7046 97.1982C25.8573 97.1481 26.0279 97.0705 26.2163 96.9656L26.2377 94.7756ZM26.8962 92.167L26.8926 92.2314C26.8639 93.0783 26.8413 93.8966 26.8246 94.6862L26.8175 95.2444C26.8126 95.3756 26.8079 95.551 26.8031 95.7705C26.8008 95.9875 26.7996 96.2273 26.7996 96.4896V96.6292C26.7996 97.0014 26.8126 97.2327 26.8389 97.3235C26.8652 97.4117 26.9165 97.4559 26.9928 97.4559C27.0381 97.4559 27.0847 97.4511 27.1324 97.4415C27.1825 97.432 27.2338 97.4177 27.2862 97.3986L27.3435 97.6241C27.1765 97.6885 27.0131 97.7362 26.8533 97.7671C26.6934 97.8006 26.5325 97.8173 26.3701 97.8173L26.2664 97.8137C26.2497 97.7111 26.2366 97.6169 26.2271 97.531C26.2199 97.4427 26.2163 97.3593 26.2163 97.2805C25.9443 97.4547 25.7201 97.5751 25.5436 97.6419C25.3671 97.7087 25.1952 97.7421 25.0283 97.7421C24.6108 97.7421 24.2709 97.5846 24.0084 97.2698C23.746 96.9526 23.6148 96.5409 23.6148 96.0353C23.6148 95.4722 23.783 95.0178 24.1194 94.6719C24.4558 94.326 24.8923 94.1531 25.429 94.1531C25.5507 94.1531 25.6783 94.1649 25.8119 94.1889C25.9479 94.2102 26.0947 94.2449 26.2521 94.2925C26.2521 94.2711 26.2532 94.2389 26.2557 94.1959C26.2676 93.7785 26.2735 93.4027 26.2735 93.0688C26.2735 92.9185 26.2497 92.8123 26.2019 92.7503C26.1566 92.6882 26.0803 92.6573 25.9729 92.6573C25.9491 92.6573 25.9193 92.6609 25.8835 92.6679C25.8477 92.6727 25.7989 92.6811 25.7368 92.693L25.6938 92.4604C25.8704 92.4294 26.0577 92.3901 26.2557 92.3423C26.4537 92.2922 26.6672 92.2338 26.8962 92.167ZM30.8288 95.7132H29.0825C28.9466 95.7132 28.8214 95.7156 28.7068 95.7204C28.5924 95.7251 28.4862 95.7322 28.3884 95.7418V95.8742C28.3884 96.3418 28.4958 96.7033 28.7105 96.9584C28.9275 97.2137 29.2329 97.3413 29.6265 97.3413C29.8006 97.3413 29.9725 97.3127 30.1417 97.2555C30.3112 97.1959 30.4913 97.104 30.6821 96.9799L30.8217 97.2089C30.576 97.4094 30.3302 97.5608 30.0846 97.6634C29.8412 97.766 29.6003 97.8173 29.3617 97.8173C28.899 97.8173 28.5173 97.6527 28.2167 97.3235C27.9161 96.9919 27.7657 96.5672 27.7657 96.0496C27.7657 95.4985 27.9232 95.0357 28.238 94.6612C28.553 94.2866 28.9371 94.0993 29.3903 94.0993C29.8126 94.0993 30.1489 94.24 30.3995 94.5216C30.65 94.8031 30.793 95.2003 30.8288 95.7132ZM30.1668 95.3375C30.0952 95.0441 29.9867 94.8198 29.8412 94.6647C29.6957 94.5073 29.5215 94.4285 29.3188 94.4285C29.0897 94.4285 28.893 94.5203 28.7283 94.704C28.5661 94.8877 28.46 95.1358 28.4099 95.4484C28.8822 95.4484 29.2532 95.4401 29.5227 95.4233C29.7947 95.4066 30.0093 95.378 30.1668 95.3375Z" fill="#FA0000"/>
    <path d="M37.8175 92.7682V92.8899C37.8175 93.0569 37.8235 93.231 37.8355 93.4123C37.8473 93.5912 37.8653 93.7797 37.8891 93.9777L37.6278 94.0207C37.5802 93.6771 37.418 93.41 37.1412 93.2191C36.8644 93.0258 36.503 92.9292 36.057 92.9292C35.463 92.9292 35.0037 93.1117 34.6793 93.4767C34.3572 93.8393 34.1963 94.3546 34.1963 95.0226C34.1963 95.7359 34.3811 96.3132 34.7509 96.7545C35.1231 97.1934 35.6049 97.4129 36.1966 97.4129C36.5687 97.4129 36.8907 97.3271 37.1627 97.1553C37.437 96.9835 37.6505 96.7319 37.8032 96.4002L38.043 96.5184C37.9667 96.6734 37.8974 96.832 37.8355 96.9942C37.7734 97.1541 37.7186 97.3151 37.6708 97.4773C37.4132 97.5942 37.1507 97.6825 36.8836 97.7421C36.6164 97.8018 36.348 97.8316 36.0785 97.8316C35.2864 97.8316 34.6448 97.5871 34.1533 97.098C33.6642 96.6067 33.4197 95.9613 33.4197 95.1621C33.4197 94.3749 33.6785 93.7344 34.1963 93.2406C34.7139 92.7443 35.3831 92.4962 36.2037 92.4962C36.447 92.4962 36.7035 92.5189 36.973 92.5643C37.245 92.6096 37.5265 92.6776 37.8175 92.7682ZM39.6426 94.0565C39.6258 94.2187 39.6126 94.3832 39.6031 94.5503C39.5936 94.7148 39.5865 94.8902 39.5816 95.0762C39.775 94.7351 39.9527 94.4895 40.1149 94.3391C40.2794 94.1889 40.4488 94.1136 40.623 94.1136C40.7589 94.1136 40.8663 94.1506 40.9451 94.2247C41.0237 94.2961 41.0631 94.3939 41.0631 94.518C41.0631 94.6063 41.0369 94.6827 40.9844 94.747C40.9343 94.8091 40.8746 94.8401 40.8055 94.8401C40.7625 94.8401 40.6958 94.8174 40.605 94.7721C40.5169 94.7243 40.4405 94.7005 40.376 94.7005C40.252 94.7005 40.128 94.7554 40.004 94.8652C39.8799 94.9725 39.7498 95.1407 39.6139 95.3697V95.7633C39.6139 96.145 39.6163 96.4551 39.6211 96.6936C39.6281 96.9299 39.6377 97.0801 39.6496 97.1446C39.6711 97.2662 39.7165 97.3497 39.7856 97.3951C39.8572 97.4404 39.9777 97.463 40.147 97.463H40.2508V97.7135C40.0648 97.6992 39.8989 97.6885 39.7535 97.6813C39.6079 97.6742 39.485 97.6705 39.3848 97.6705C39.2465 97.6705 39.1033 97.6742 38.9555 97.6813C38.8099 97.6885 38.6572 97.6992 38.4975 97.7135V97.463H38.5797C38.7539 97.463 38.872 97.4212 38.934 97.3378C38.9961 97.2543 39.027 97.0598 39.027 96.7545V96.3788V95.2158C39.027 94.9581 39.0091 94.7924 38.9733 94.7185C38.9376 94.6445 38.872 94.6074 38.7766 94.6074C38.7574 94.6074 38.7371 94.6087 38.7157 94.6111C38.6943 94.6111 38.6585 94.6147 38.6084 94.6219L38.5654 94.3999C38.7348 94.3618 38.909 94.3141 39.0879 94.2568C39.2667 94.1995 39.4517 94.1328 39.6426 94.0565ZM44.6021 97.1947L44.7023 97.4201C44.5233 97.5489 44.36 97.6479 44.2121 97.7171C44.0642 97.7886 43.9449 97.8244 43.8543 97.8244C43.7016 97.8244 43.587 97.7803 43.5107 97.692C43.4343 97.6014 43.3927 97.4654 43.3855 97.2841C43.1254 97.4582 42.9096 97.5836 42.7378 97.6599C42.566 97.7338 42.4121 97.7708 42.2762 97.7708C42.0352 97.7708 41.8337 97.6802 41.6715 97.4988C41.5093 97.3175 41.4282 97.0956 41.4282 96.8332C41.4282 96.3872 41.9088 96.0508 42.8702 95.8241C43.0969 95.7717 43.2733 95.7299 43.3998 95.6989C43.3998 95.6584 43.401 95.5998 43.4034 95.5235C43.4105 95.3661 43.4141 95.2635 43.4141 95.2158C43.4141 94.9678 43.3629 94.7852 43.2603 94.6683C43.1577 94.5491 43.0015 94.4895 42.7915 94.4895C42.5863 94.4895 42.4241 94.5276 42.3048 94.6039C42.1879 94.6778 42.1295 94.7793 42.1295 94.908C42.1295 94.92 42.1307 94.9367 42.133 94.9581C42.1355 94.9773 42.1366 94.9916 42.1366 95.0011C42.1366 95.075 42.1009 95.1371 42.0293 95.1871C41.9578 95.2349 41.8718 95.2587 41.7716 95.2587C41.6857 95.2587 41.6225 95.2444 41.5819 95.2158C41.5414 95.1871 41.5211 95.143 41.5211 95.0834C41.5211 94.8925 41.6822 94.6802 42.0042 94.4465C42.3263 94.2102 42.6591 94.0923 43.0026 94.0923C43.3342 94.0923 43.5859 94.1841 43.7576 94.3677C43.9294 94.5491 44.0152 94.8162 44.0152 95.1693C44.0152 95.3601 44.0034 95.6536 43.9795 96.0496C43.9581 96.4456 43.9473 96.7461 43.9473 96.9513C43.9473 97.1063 43.9639 97.2114 43.9974 97.2662C44.0332 97.3211 44.0952 97.3486 44.1834 97.3486C44.2217 97.3486 44.2705 97.3378 44.3301 97.3163C44.3922 97.2925 44.4828 97.2519 44.6021 97.1947ZM43.3819 95.9852C43.3366 95.9971 43.2686 96.015 43.178 96.0388C42.4026 96.2511 42.0149 96.5016 42.0149 96.7902C42.0149 96.9477 42.0651 97.0765 42.1653 97.1767C42.2654 97.2745 42.3978 97.3235 42.5625 97.3235C42.6626 97.3235 42.7783 97.2973 42.9096 97.2447C43.0408 97.1922 43.1935 97.1088 43.3676 96.9942L43.3819 95.9852ZM46.0406 93.9777L46.0478 94.2747H46.2876C46.4115 94.2747 46.5333 94.2735 46.6525 94.2711C46.7719 94.2663 46.8875 94.2615 46.9997 94.2568C46.9997 94.2663 46.9984 94.2818 46.9961 94.3033C46.9889 94.456 46.9854 94.5621 46.9854 94.6219L46.9424 94.6182C46.6108 94.6015 46.3687 94.5932 46.216 94.5932H46.0621C46.0621 94.8484 46.0598 95.1263 46.055 95.4269C46.055 95.5128 46.055 95.5665 46.055 95.588C46.055 96.1342 46.0586 96.5231 46.0656 96.7545C46.0728 96.9859 46.0859 97.1421 46.1051 97.2232C46.1289 97.3188 46.1778 97.3843 46.2518 97.4201C46.3281 97.4535 46.4725 97.4702 46.6848 97.4702V97.7135C46.451 97.6992 46.2708 97.6897 46.1444 97.6849C46.018 97.6802 45.9119 97.6777 45.826 97.6777C45.7497 97.6777 45.6506 97.6802 45.5289 97.6849C45.4073 97.6897 45.2164 97.6992 44.9563 97.7135V97.4702H45.0494C45.2141 97.4702 45.325 97.4201 45.3823 97.3198C45.4394 97.2197 45.4681 97.0014 45.4681 96.665C45.4681 96.6007 45.4669 96.4718 45.4646 96.2786C45.4621 96.0829 45.4609 95.9207 45.4609 95.792C45.4609 95.6154 45.4598 95.4293 45.4574 95.2337C45.4574 95.0357 45.4561 94.8269 45.4538 94.6074H45.2176C45.2128 94.6074 45.1806 94.6099 45.121 94.6146C45.0637 94.617 45.0089 94.6194 44.9563 94.6219V94.3571C45.0589 94.3522 45.1508 94.3379 45.2319 94.3141C45.313 94.2902 45.387 94.2556 45.4538 94.2102V94.1459C45.4538 93.5399 45.597 93.0604 45.8832 92.7074C46.1695 92.352 46.5584 92.1741 47.0497 92.1741C47.274 92.1741 47.4482 92.2111 47.5721 92.2852C47.6987 92.3591 47.7618 92.4604 47.7618 92.5893C47.7618 92.6752 47.7368 92.7467 47.6867 92.804C47.6389 92.8612 47.5806 92.8899 47.5113 92.8899C47.4684 92.8899 47.3563 92.8434 47.1749 92.7503C46.9961 92.6549 46.8493 92.6071 46.7348 92.6071C46.4843 92.6071 46.3054 92.7026 46.198 92.8934C46.0931 93.0843 46.0406 93.423 46.0406 93.9096V93.9777ZM48.1662 93.5232L48.4023 93.5948C48.388 93.7261 48.3761 93.8441 48.3665 93.9491C48.3595 94.0517 48.3547 94.1531 48.3522 94.2532H48.6063C48.7422 94.2532 48.8806 94.252 49.0215 94.2497C49.1622 94.2449 49.3041 94.2389 49.4473 94.2317L49.3614 94.6219C49.2087 94.6099 49.0643 94.6027 48.9284 94.6004C48.7948 94.5956 48.6611 94.5932 48.5276 94.5932H48.3595C48.3452 95.0034 48.3344 95.3184 48.3272 95.5379C48.3224 95.755 48.32 95.935 48.32 96.0782C48.32 96.6173 48.357 96.9692 48.431 97.1338C48.5049 97.296 48.6373 97.3771 48.8282 97.3771C48.9069 97.3771 48.994 97.3604 49.0894 97.3271C49.1872 97.2936 49.3053 97.2387 49.4437 97.1624L49.5617 97.3986C49.3327 97.537 49.1252 97.6419 48.9391 97.7135C48.753 97.7826 48.5908 97.8173 48.4524 97.8173C48.1973 97.8173 48.0111 97.7302 47.8942 97.5561C47.7773 97.3796 47.7189 97.0968 47.7189 96.708C47.7189 96.6317 47.7237 96.3597 47.7332 95.8921C47.7451 95.4221 47.7511 94.9916 47.7511 94.6004C47.7296 94.6004 47.6987 94.6015 47.6581 94.6039C47.46 94.6111 47.3241 94.6146 47.2502 94.6146V94.3571C47.4839 94.3236 47.6772 94.2377 47.8298 94.0993C47.9825 93.9586 48.0947 93.7666 48.1662 93.5232ZM53.0077 95.7132H51.2615C51.1255 95.7132 51.0003 95.7156 50.8857 95.7204C50.7713 95.7252 50.6651 95.7322 50.5673 95.7418V95.8742C50.5673 96.3419 50.6747 96.7033 50.8894 96.9584C51.1064 97.2137 51.4118 97.3413 51.8054 97.3413C51.9795 97.3413 52.1513 97.3128 52.3206 97.2555C52.49 97.1959 52.6702 97.104 52.861 96.9799L53.0006 97.2089C52.7549 97.4094 52.5091 97.5608 52.2635 97.6634C52.02 97.766 51.7792 97.8173 51.5406 97.8173C51.0778 97.8173 50.6962 97.6527 50.3956 97.3235C50.095 96.9919 49.9446 96.5672 49.9446 96.0496C49.9446 95.4985 50.1021 95.0357 50.4169 94.6612C50.7319 94.2866 51.116 94.0993 51.5692 94.0993C51.9915 94.0993 52.3278 94.24 52.5784 94.5216C52.8289 94.8031 52.9719 95.2003 53.0077 95.7132ZM52.3457 95.3375C52.2742 95.0441 52.1656 94.8198 52.0201 94.6647C51.8746 94.5073 51.7004 94.4285 51.4976 94.4285C51.2686 94.4285 51.0719 94.5204 50.9072 94.7041C50.745 94.8878 50.6389 95.1358 50.5888 95.4484C51.0611 95.4484 51.4321 95.4401 51.7016 95.4234C51.9736 95.4066 52.1882 95.378 52.3457 95.3375ZM54.6 94.0565C54.5834 94.2187 54.5702 94.3832 54.5607 94.5503C54.5512 94.7148 54.544 94.8902 54.5392 95.0762C54.7325 94.7351 54.9103 94.4895 55.0725 94.3391C55.237 94.1889 55.4064 94.1136 55.5806 94.1136C55.7166 94.1136 55.8239 94.1506 55.9027 94.2247C55.9814 94.2961 56.0207 94.3939 56.0207 94.518C56.0207 94.6063 55.9945 94.6827 55.942 94.747C55.8919 94.8091 55.8322 94.8401 55.7631 94.8401C55.7201 94.8401 55.6534 94.8174 55.5627 94.7721C55.4745 94.7243 55.3981 94.7005 55.3336 94.7005C55.2097 94.7005 55.0856 94.7554 54.9615 94.8652C54.8375 94.9725 54.7074 95.1407 54.5715 95.3697V95.7633C54.5715 96.145 54.5739 96.4551 54.5787 96.6936C54.5858 96.9299 54.5953 97.0801 54.6073 97.1446C54.6288 97.2662 54.6741 97.3497 54.7432 97.3951C54.8148 97.4404 54.9353 97.463 55.1046 97.463H55.2084V97.7135C55.0224 97.6992 54.8565 97.6885 54.7111 97.6813C54.5655 97.6742 54.4426 97.6705 54.3425 97.6705C54.2041 97.6705 54.0609 97.6742 53.913 97.6813C53.7675 97.6885 53.6149 97.6992 53.455 97.7135V97.463H53.5373C53.7115 97.463 53.8296 97.4212 53.8916 97.3378C53.9537 97.2543 53.9846 97.0598 53.9846 96.7545V96.3788V95.2158C53.9846 94.9581 53.9667 94.7924 53.931 94.7185C53.8952 94.6445 53.8296 94.6074 53.7342 94.6074C53.715 94.6074 53.6947 94.6087 53.6734 94.6111C53.6519 94.6111 53.6161 94.6147 53.566 94.6219L53.523 94.3999C53.6924 94.3618 53.8666 94.3141 54.0454 94.2568C54.2243 94.1995 54.4093 94.1328 54.6 94.0565Z" fill="#00B2FF"/>
    <path d="M34.0148 105.188C34.1151 105.202 34.2057 105.213 34.2868 105.22C34.3679 105.227 34.4478 105.231 34.5266 105.231C34.9751 105.231 35.315 105.132 35.5463 104.934C35.7801 104.733 35.897 104.441 35.897 104.057C35.897 103.711 35.7825 103.436 35.5535 103.23C35.3245 103.025 35.0144 102.923 34.6232 102.923C34.5158 102.923 34.4132 102.928 34.3154 102.937C34.22 102.944 34.1258 102.956 34.0327 102.973C34.0255 103.295 34.0208 103.62 34.0184 103.95C34.016 104.276 34.0148 104.689 34.0148 105.188ZM32.741 107.432C32.76 107.434 32.7779 107.436 32.7946 107.439C32.8136 107.439 32.8423 107.439 32.8805 107.439C33.0714 107.439 33.2001 107.374 33.2669 107.245C33.3362 107.114 33.3707 106.824 33.3707 106.376C33.3707 106.309 33.3695 106.186 33.3672 106.007C33.3647 105.828 33.3635 105.684 33.3635 105.574V103.334C33.3635 103.129 33.3266 102.988 33.2526 102.912C33.1787 102.836 33.0439 102.797 32.8483 102.797H32.8196V102.547C32.9818 102.559 33.1429 102.567 33.3027 102.572C33.4649 102.577 33.6248 102.579 33.7822 102.579C33.9587 102.579 34.1687 102.574 34.412 102.565C34.6577 102.553 34.8164 102.547 34.888 102.547C35.4104 102.547 35.8279 102.677 36.1404 102.937C36.4529 103.197 36.6092 103.539 36.6092 103.964C36.6092 104.467 36.4373 104.86 36.0939 105.141C35.7527 105.42 35.2697 105.56 34.6447 105.56C34.5826 105.56 34.4979 105.556 34.3905 105.549C34.2856 105.542 34.1604 105.531 34.0148 105.517V106.594C34.0148 106.962 34.0518 107.193 34.1258 107.288C34.2022 107.381 34.3536 107.428 34.5802 107.428C34.5874 107.428 34.5992 107.427 34.616 107.424C34.635 107.422 34.6494 107.421 34.659 107.421C34.6708 107.421 34.6792 107.422 34.684 107.424C34.6911 107.424 34.6971 107.426 34.7018 107.428L34.7055 107.664C34.5313 107.655 34.3559 107.647 34.1794 107.643C34.0029 107.638 33.8288 107.635 33.657 107.635C33.5735 107.635 33.4506 107.638 33.2884 107.643C33.1285 107.647 32.946 107.655 32.741 107.664V107.432ZM37.9976 104.007C37.9809 104.169 37.9678 104.334 37.9581 104.501C37.9486 104.665 37.9415 104.841 37.9368 105.027C38.13 104.686 38.3077 104.44 38.4699 104.29C38.6346 104.139 38.8038 104.064 38.978 104.064C39.114 104.064 39.2213 104.101 39.3001 104.175C39.3788 104.247 39.4182 104.345 39.4182 104.469C39.4182 104.557 39.392 104.633 39.3394 104.698C39.2894 104.76 39.2298 104.791 39.1605 104.791C39.1176 104.791 39.0508 104.768 38.9602 104.723C38.8719 104.675 38.7955 104.651 38.7312 104.651C38.6071 104.651 38.483 104.706 38.359 104.816C38.2349 104.923 38.1049 105.091 37.9689 105.32V105.714C37.9689 106.096 37.9713 106.406 37.9761 106.644C37.9833 106.88 37.9928 107.031 38.0047 107.095C38.0262 107.217 38.0715 107.3 38.1407 107.346C38.2123 107.391 38.3327 107.414 38.5022 107.414H38.6059V107.664C38.4198 107.65 38.254 107.639 38.1085 107.632C37.963 107.625 37.8401 107.621 37.7399 107.621C37.6016 107.621 37.4585 107.625 37.3105 107.632C37.1649 107.639 37.0123 107.65 36.8525 107.664V107.414H36.9348C37.1089 107.414 37.227 107.372 37.289 107.288C37.3511 107.205 37.3821 107.01 37.3821 106.705V106.329V105.166C37.3821 104.909 37.3642 104.743 37.3284 104.669C37.2926 104.595 37.227 104.558 37.1316 104.558C37.1125 104.558 37.0923 104.559 37.0708 104.562C37.0493 104.562 37.0135 104.565 36.9634 104.572L36.9204 104.35C37.0898 104.312 37.264 104.265 37.4429 104.207C37.6219 104.15 37.8067 104.083 37.9976 104.007ZM41.4829 104.426C41.1633 104.426 40.9055 104.543 40.71 104.776C40.5168 105.008 40.4201 105.32 40.4201 105.714C40.4201 106.217 40.5275 106.625 40.7421 106.938C40.9593 107.25 41.2407 107.406 41.5867 107.406C41.9207 107.406 42.1867 107.282 42.3847 107.034C42.585 106.786 42.6853 106.449 42.6853 106.022C42.6853 105.554 42.5719 105.171 42.3452 104.873C42.1211 104.575 41.8336 104.426 41.4829 104.426ZM41.576 104.05C42.0793 104.05 42.4956 104.219 42.8248 104.558C43.1564 104.894 43.3222 105.312 43.3222 105.81C43.3222 106.359 43.1481 106.822 42.7997 107.199C42.4515 107.573 42.022 107.761 41.5115 107.761C41.0011 107.761 40.5811 107.589 40.252 107.245C39.9251 106.902 39.7617 106.468 39.7617 105.943C39.7617 105.418 39.9394 104.972 40.2948 104.605C40.6527 104.235 41.0797 104.05 41.576 104.05ZM45.3654 104.322C45.1102 104.322 44.9122 104.401 44.7714 104.558C44.6306 104.715 44.5603 104.937 44.5603 105.224C44.5603 105.538 44.6283 105.784 44.7642 105.961C44.9026 106.135 45.0959 106.222 45.3439 106.222C45.5944 106.222 45.7912 106.143 45.9344 105.986C46.0775 105.826 46.1491 105.606 46.1491 105.327C46.1491 105.005 46.0811 104.757 45.9451 104.583C45.8092 104.409 45.6159 104.322 45.3654 104.322ZM44.7142 107.614C44.5973 107.745 44.5114 107.864 44.4566 107.972C44.4016 108.079 44.3742 108.182 44.3742 108.28C44.3742 108.501 44.4732 108.689 44.6712 108.841C44.8716 108.994 45.1221 109.07 45.4227 109.07C45.7639 109.07 46.0585 108.975 46.3065 108.784C46.557 108.596 46.6822 108.383 46.6822 108.147C46.6822 107.954 46.6214 107.818 46.4998 107.739C46.3781 107.661 46.1443 107.621 45.7984 107.621C45.7626 107.621 45.6838 107.62 45.5622 107.618C45.4405 107.615 45.3379 107.614 45.2545 107.614H44.7142ZM46.2135 104.3C46.3733 104.3 46.5343 104.298 46.6965 104.293C46.8612 104.288 47.0258 104.281 47.1903 104.272L47.1725 104.63C47.0676 104.618 46.9518 104.609 46.8254 104.605C46.7014 104.597 46.557 104.594 46.3924 104.594C46.5045 104.68 46.5893 104.785 46.6464 104.909C46.7062 105.03 46.736 105.165 46.736 105.313C46.736 105.635 46.6011 105.912 46.3316 106.143C46.0644 106.375 45.7351 106.49 45.3439 106.49C45.3034 106.49 45.2461 106.488 45.1722 106.483C45.0983 106.476 45.0458 106.471 45.0148 106.469C44.9504 106.512 44.8896 106.557 44.8323 106.605C44.775 106.65 44.7225 106.698 44.6748 106.748C44.7106 106.815 44.7512 106.877 44.7965 106.934C44.8441 106.989 44.8991 107.041 44.961 107.091C45.035 107.091 45.1412 107.09 45.2796 107.088C45.6135 107.081 45.833 107.077 45.938 107.077C46.3698 107.077 46.6799 107.143 46.8684 107.274C47.0592 107.405 47.1546 107.616 47.1546 107.907C47.1546 108.093 47.1022 108.281 46.9971 108.469C46.8946 108.66 46.749 108.834 46.5606 108.992C46.3674 109.152 46.1443 109.277 45.8915 109.367C45.641 109.458 45.3917 109.503 45.1436 109.503C44.7738 109.503 44.4637 109.406 44.2131 109.21C43.9651 109.014 43.8411 108.777 43.8411 108.498C43.8411 108.336 43.8923 108.176 43.9949 108.018C44.0999 107.863 44.2824 107.68 44.5424 107.467C44.4351 107.369 44.3455 107.269 44.274 107.167C44.2048 107.064 44.1488 106.952 44.1059 106.83C44.1918 106.749 44.2859 106.673 44.3885 106.601C44.4911 106.527 44.6045 106.455 44.7285 106.383C44.4876 106.307 44.2991 106.179 44.1631 106C44.0271 105.821 43.9591 105.614 43.9591 105.377C43.9591 105.008 44.0951 104.695 44.367 104.44C44.6414 104.185 44.9837 104.057 45.394 104.057C45.5444 104.057 45.6851 104.077 45.8163 104.118C45.9476 104.156 46.08 104.217 46.2135 104.3ZM48.6826 104.007C48.6659 104.169 48.6527 104.334 48.6432 104.501C48.6337 104.665 48.6265 104.841 48.6217 105.027C48.815 104.686 48.9927 104.44 49.1549 104.29C49.3195 104.139 49.4889 104.064 49.6631 104.064C49.799 104.064 49.9064 104.101 49.9851 104.175C50.0639 104.247 50.1032 104.345 50.1032 104.469C50.1032 104.557 50.0769 104.633 50.0245 104.698C49.9743 104.76 49.9147 104.791 49.8456 104.791C49.8026 104.791 49.7358 104.768 49.6452 104.723C49.5568 104.675 49.4805 104.651 49.4161 104.651C49.292 104.651 49.1681 104.706 49.044 104.816C48.92 104.923 48.7899 105.091 48.654 105.32V105.714C48.654 106.096 48.6563 106.406 48.6611 106.644C48.6683 106.88 48.6778 107.031 48.6898 107.095C48.7113 107.217 48.7566 107.3 48.8257 107.346C48.8973 107.391 49.0177 107.414 49.1871 107.414H49.2909V107.664C49.1048 107.65 48.9391 107.639 48.7935 107.632C48.648 107.625 48.5251 107.621 48.425 107.621C48.2866 107.621 48.1434 107.625 47.9955 107.632C47.85 107.639 47.6974 107.65 47.5375 107.664V107.414H47.6198C47.794 107.414 47.9121 107.372 47.974 107.288C48.0361 107.205 48.0671 107.01 48.0671 106.705V106.329V105.166C48.0671 104.909 48.0492 104.743 48.0135 104.669C47.9777 104.595 47.9121 104.558 47.8166 104.558C47.7975 104.558 47.7772 104.559 47.7557 104.562C47.7344 104.562 47.6986 104.565 47.6484 104.572L47.6055 104.35C47.7749 104.312 47.949 104.265 48.1279 104.207C48.3068 104.15 48.4918 104.083 48.6826 104.007ZM53.6422 107.145L53.7424 107.371C53.5635 107.499 53.4 107.598 53.2521 107.668C53.1042 107.739 52.985 107.775 52.8944 107.775C52.7417 107.775 52.6271 107.731 52.5508 107.643C52.4744 107.552 52.4327 107.416 52.4256 107.235C52.1656 107.409 51.9496 107.534 51.7779 107.61C51.6061 107.684 51.4522 107.721 51.3163 107.721C51.0753 107.721 50.8738 107.631 50.7116 107.449C50.5492 107.268 50.4681 107.046 50.4681 106.784C50.4681 106.338 50.9489 106.001 51.9103 105.775C52.1368 105.722 52.3135 105.68 52.4399 105.649C52.4399 105.609 52.4411 105.55 52.4434 105.474C52.4506 105.317 52.4542 105.214 52.4542 105.166C52.4542 104.918 52.4029 104.736 52.3003 104.619C52.1978 104.5 52.0415 104.44 51.8315 104.44C51.6264 104.44 51.4642 104.478 51.3449 104.554C51.228 104.628 51.1696 104.73 51.1696 104.859C51.1696 104.871 51.1707 104.887 51.1731 104.909C51.1755 104.928 51.1767 104.942 51.1767 104.952C51.1767 105.026 51.1409 105.088 51.0693 105.138C50.9978 105.185 50.9119 105.209 50.8117 105.209C50.7259 105.209 50.6626 105.195 50.622 105.166C50.5815 105.138 50.5612 105.094 50.5612 105.034C50.5612 104.843 50.7222 104.631 51.0443 104.397C51.3664 104.161 51.6991 104.043 52.0427 104.043C52.3743 104.043 52.6259 104.135 52.7978 104.318C52.9695 104.5 53.0554 104.767 53.0554 105.12C53.0554 105.311 53.0434 105.604 53.0196 106C52.9981 106.396 52.9873 106.697 52.9873 106.902C52.9873 107.057 53.0041 107.162 53.0375 107.217C53.0732 107.272 53.1352 107.299 53.2235 107.299C53.2616 107.299 53.3106 107.288 53.3702 107.267C53.4323 107.243 53.5229 107.203 53.6422 107.145ZM52.4219 105.936C52.3766 105.948 52.3087 105.966 52.2181 105.989C51.4427 106.202 51.055 106.452 51.055 106.741C51.055 106.898 51.1051 107.027 51.2054 107.127C51.3056 107.225 51.438 107.274 51.6025 107.274C51.7028 107.274 51.8184 107.248 51.9496 107.195C52.0808 107.143 52.2335 107.059 52.4076 106.945L52.4219 105.936ZM55.0557 104.007C55.0461 104.105 55.0377 104.2 55.0306 104.293C55.0234 104.384 55.0187 104.476 55.0163 104.569C55.3407 104.364 55.5936 104.226 55.775 104.157C55.9562 104.086 56.1304 104.05 56.2974 104.05C56.5001 104.05 56.6718 104.096 56.8127 104.19C56.9558 104.282 57.0775 104.429 57.1776 104.63C57.4973 104.417 57.7585 104.268 57.9613 104.182C58.1641 104.094 58.3465 104.05 58.5087 104.05C58.8571 104.05 59.1099 104.156 59.2674 104.368C59.4272 104.581 59.5071 104.924 59.5071 105.399V105.474L59.4928 106.651C59.4928 106.771 59.4905 106.879 59.4856 106.977C59.4856 106.984 59.4856 106.989 59.4856 106.991C59.4856 107.163 59.5119 107.276 59.5644 107.331C59.6169 107.386 59.7219 107.414 59.8793 107.414H59.9616V107.664C59.7302 107.65 59.5572 107.64 59.4428 107.635C59.3282 107.631 59.2352 107.628 59.1637 107.628C59.0873 107.628 58.9919 107.631 58.8774 107.635C58.7652 107.64 58.6043 107.65 58.3943 107.664V107.414C58.4086 107.416 58.4265 107.418 58.4479 107.421C58.4694 107.421 58.4992 107.421 58.5374 107.421C58.6901 107.421 58.7915 107.372 58.8416 107.274C58.8941 107.174 58.9204 106.933 58.9204 106.551V106.029C58.9204 105.943 58.9215 105.83 58.9239 105.689C58.9262 105.548 58.9274 105.449 58.9274 105.392C58.9274 105.086 58.8714 104.862 58.7593 104.719C58.6496 104.576 58.4789 104.504 58.2476 104.504C58.1355 104.504 58.0019 104.534 57.8469 104.594C57.6917 104.653 57.4997 104.749 57.2707 104.88L57.242 106.644V106.938C57.242 107.152 57.2683 107.286 57.3208 107.338C57.3756 107.389 57.4865 107.414 57.6535 107.414H57.6965V107.661C57.508 107.651 57.3506 107.644 57.2242 107.639C57.0978 107.632 56.9892 107.628 56.8985 107.628C56.8079 107.628 56.7018 107.632 56.58 107.639C56.4583 107.644 56.3307 107.652 56.1972 107.664L56.1935 107.414C56.3606 107.414 56.4691 107.401 56.5192 107.374C56.5694 107.346 56.6052 107.281 56.6265 107.181C56.6433 107.102 56.6552 106.903 56.6623 106.583C56.6718 106.264 56.6766 105.855 56.6766 105.356C56.6766 105.058 56.623 104.842 56.5156 104.708C56.4107 104.572 56.2425 104.504 56.0111 104.504C55.8989 104.504 55.7642 104.534 55.6068 104.594C55.4517 104.651 55.2644 104.742 55.0449 104.866C55.0306 105.255 55.0199 105.592 55.0127 105.878C55.0079 106.165 55.0056 106.425 55.0056 106.658C55.0056 107.024 55.0294 107.242 55.0772 107.313C55.1272 107.385 55.2311 107.421 55.3885 107.421C55.4004 107.421 55.4183 107.42 55.4421 107.417C55.4684 107.415 55.4899 107.414 55.5065 107.414L55.503 107.664C55.355 107.652 55.2119 107.644 55.0735 107.639C54.9352 107.632 54.8052 107.628 54.6835 107.628C54.5786 107.628 54.4617 107.632 54.3328 107.639C54.204 107.644 54.068 107.652 53.9249 107.664L53.9213 107.414H53.9892C54.2875 107.414 54.4378 107.124 54.4402 106.544C54.4402 106.458 54.4414 106.391 54.4437 106.344L54.4509 105.467V105.113C54.4509 104.879 54.433 104.726 54.3972 104.655C54.3614 104.581 54.2958 104.544 54.2004 104.544C54.1814 104.544 54.1563 104.546 54.1253 104.551C54.0966 104.556 54.0656 104.563 54.0322 104.572L53.9892 104.35C54.1659 104.303 54.3436 104.25 54.5225 104.193C54.7015 104.136 54.8792 104.074 55.0557 104.007ZM61.5039 104.007C61.4944 104.105 61.4859 104.2 61.4789 104.293C61.4717 104.384 61.4669 104.476 61.4646 104.569C61.789 104.364 62.0418 104.226 62.2232 104.157C62.4045 104.086 62.5786 104.05 62.7456 104.05C62.9484 104.05 63.1201 104.096 63.2609 104.19C63.4041 104.282 63.5257 104.429 63.6259 104.63C63.9455 104.417 64.2068 104.268 64.4095 104.182C64.6123 104.094 64.7948 104.05 64.957 104.05C65.3053 104.05 65.5582 104.156 65.7156 104.368C65.8755 104.581 65.9554 104.924 65.9554 105.399V105.474L65.9411 106.651C65.9411 106.771 65.9388 106.879 65.9339 106.977C65.9339 106.984 65.9339 106.989 65.9339 106.991C65.9339 107.163 65.9601 107.276 66.0126 107.331C66.0652 107.386 66.1701 107.414 66.3275 107.414H66.4099V107.664C66.1784 107.65 66.0054 107.64 65.891 107.635C65.7764 107.631 65.6835 107.628 65.6119 107.628C65.5356 107.628 65.44 107.631 65.3256 107.635C65.2135 107.64 65.0525 107.65 64.8425 107.664V107.414C64.8568 107.416 64.8748 107.418 64.8962 107.421C64.9176 107.421 64.9474 107.421 64.9857 107.421C65.1384 107.421 65.2397 107.372 65.2898 107.274C65.3423 107.174 65.3686 106.933 65.3686 106.551V106.029C65.3686 105.943 65.3697 105.83 65.3721 105.689C65.3745 105.548 65.3757 105.449 65.3757 105.392C65.3757 105.086 65.3196 104.862 65.2075 104.719C65.0978 104.576 64.9272 104.504 64.6958 104.504C64.5837 104.504 64.4501 104.534 64.295 104.594C64.14 104.653 63.948 104.749 63.7189 104.88L63.6902 106.644V106.938C63.6902 107.152 63.7165 107.286 63.769 107.338C63.8239 107.389 63.9348 107.414 64.1017 107.414H64.1447V107.661C63.9563 107.651 63.7988 107.644 63.6724 107.639C63.546 107.632 63.4374 107.628 63.3468 107.628C63.2562 107.628 63.1499 107.632 63.0282 107.639C62.9066 107.644 62.7789 107.652 62.6454 107.664L62.6418 107.414C62.8089 107.414 62.9173 107.401 62.9674 107.374C63.0176 107.346 63.0533 107.281 63.0748 107.181C63.0915 107.102 63.1035 106.903 63.1106 106.583C63.1201 106.264 63.1248 105.855 63.1248 105.356C63.1248 105.058 63.0712 104.842 62.9639 104.708C62.8589 104.572 62.6908 104.504 62.4593 104.504C62.3472 104.504 62.2124 104.534 62.055 104.594C61.8999 104.651 61.7126 104.742 61.4932 104.866C61.4789 105.255 61.4681 105.592 61.4609 105.878C61.4561 106.165 61.4538 106.425 61.4538 106.658C61.4538 107.024 61.4776 107.242 61.5254 107.313C61.5755 107.385 61.6792 107.421 61.8367 107.421C61.8486 107.421 61.8665 107.42 61.8904 107.417C61.9166 107.415 61.9381 107.414 61.9547 107.414L61.9512 107.664C61.8033 107.652 61.6601 107.644 61.5217 107.639C61.3835 107.632 61.2534 107.628 61.1317 107.628C61.0268 107.628 60.9099 107.632 60.7811 107.639C60.6522 107.644 60.5163 107.652 60.3731 107.664L60.3696 107.414H60.4375C60.7358 107.414 60.886 107.124 60.8884 106.544C60.8884 106.458 60.8897 106.391 60.892 106.344L60.8992 105.467V105.113C60.8992 104.879 60.8812 104.726 60.8454 104.655C60.8096 104.581 60.7441 104.544 60.6487 104.544C60.6296 104.544 60.6046 104.546 60.5735 104.551C60.5448 104.556 60.5138 104.563 60.4805 104.572L60.4375 104.35C60.6141 104.303 60.7918 104.25 60.9708 104.193C61.1497 104.136 61.3274 104.074 61.5039 104.007ZM68.0415 104.007C68.0392 104.098 68.0356 104.226 68.0308 104.393C67.9999 105.352 67.9844 106.027 67.9844 106.419V106.798C67.9844 107.075 68.0105 107.249 68.063 107.32C68.1156 107.392 68.2182 107.428 68.3708 107.428C68.3851 107.428 68.4042 107.427 68.428 107.424C68.4519 107.422 68.4698 107.421 68.4817 107.421V107.664C68.279 107.65 68.1156 107.64 67.9915 107.635C67.8675 107.631 67.7625 107.628 67.6766 107.628C67.6002 107.628 67.5024 107.631 67.3832 107.635C67.2663 107.64 67.0897 107.65 66.8536 107.664V107.414H66.943C67.2388 107.414 67.388 107.123 67.3903 106.54C67.3903 106.457 67.3903 106.391 67.3903 106.344L67.4046 105.46C67.4046 105.395 67.4058 105.314 67.4082 105.216C67.4106 105.119 67.4118 105.053 67.4118 105.02C67.4118 104.826 67.3927 104.699 67.3545 104.637C67.3187 104.575 67.2519 104.544 67.1542 104.544C67.135 104.544 67.1064 104.546 67.0683 104.551C67.0325 104.553 66.9931 104.557 66.9502 104.562L66.9144 104.336C67.1029 104.3 67.2901 104.255 67.4761 104.2C67.6646 104.145 67.8531 104.081 68.0415 104.007ZM67.6551 102.322L67.9091 102.511C67.976 102.561 68.0249 102.611 68.056 102.662C68.0869 102.712 68.1024 102.764 68.1024 102.819C68.1024 102.874 68.0893 102.922 68.063 102.962C68.0392 103 67.9927 103.046 67.9236 103.098L67.6551 103.302L67.4046 103.105C67.3354 103.05 67.2854 103 67.2543 102.955C67.2233 102.907 67.2078 102.857 67.2078 102.805C67.2078 102.752 67.2198 102.707 67.2436 102.669C67.2674 102.628 67.3164 102.58 67.3903 102.526L67.6551 102.322ZM70.1528 104.007L70.1099 104.608C70.3795 104.413 70.6132 104.271 70.8112 104.182C71.0117 104.094 71.1954 104.05 71.3623 104.05C71.713 104.05 71.9766 104.149 72.1531 104.347C72.3297 104.545 72.4179 104.842 72.4179 105.238C72.4179 105.238 72.4168 105.345 72.4143 105.553C72.412 105.76 72.4108 105.968 72.4108 106.175C72.4108 106.264 72.4096 106.375 72.4071 106.508C72.4048 106.639 72.4036 106.729 72.4036 106.777C72.4036 107.044 72.4275 107.218 72.4752 107.299C72.5229 107.38 72.6136 107.421 72.7472 107.421C72.7543 107.421 72.7675 107.42 72.7865 107.417C72.808 107.415 72.8235 107.414 72.8331 107.414V107.664C72.6183 107.65 72.4561 107.64 72.3463 107.635C72.2366 107.631 72.1448 107.628 72.0709 107.628C71.9563 107.628 71.8322 107.632 71.6987 107.639C71.5651 107.644 71.4291 107.652 71.2908 107.664L71.2872 107.414H71.3408C71.6462 107.414 71.8013 107.134 71.8061 106.576C71.8084 106.545 71.8096 106.521 71.8096 106.505L71.8168 105.735V105.606C71.8168 105.165 71.7655 104.873 71.6629 104.73C71.5603 104.584 71.3838 104.511 71.1333 104.511C70.9949 104.511 70.841 104.545 70.6717 104.612C70.5047 104.676 70.3269 104.773 70.1385 104.902C70.129 105.15 70.1219 105.385 70.117 105.606C70.1122 105.826 70.1099 106.025 70.1099 106.204V106.698C70.1099 107.013 70.1325 107.212 70.1779 107.295C70.2256 107.379 70.3174 107.421 70.4534 107.421C70.463 107.421 70.4773 107.42 70.4964 107.417C70.5178 107.415 70.5345 107.414 70.5464 107.414V107.664C70.3412 107.65 70.179 107.64 70.0598 107.635C69.9429 107.631 69.8463 107.628 69.77 107.628C69.6984 107.628 69.6041 107.631 69.4872 107.635C69.3703 107.64 69.2069 107.65 68.9971 107.664L68.9934 107.414H69.0614C69.3596 107.414 69.5099 107.124 69.5123 106.544C69.5123 106.458 69.5135 106.391 69.5159 106.344L69.523 105.467V105.113C69.523 104.879 69.5052 104.726 69.4694 104.655C69.4336 104.581 69.368 104.544 69.2725 104.544C69.2534 104.544 69.2284 104.546 69.1974 104.551C69.1688 104.556 69.1378 104.563 69.1043 104.572L69.0614 104.35C69.2404 104.317 69.4193 104.272 69.5981 104.215C69.7795 104.157 69.9643 104.088 70.1528 104.007ZM74.8942 104.322C74.6389 104.322 74.4409 104.401 74.3002 104.558C74.1594 104.715 74.089 104.937 74.089 105.224C74.089 105.538 74.1571 105.784 74.293 105.961C74.4314 106.135 74.6246 106.222 74.8727 106.222C75.1232 106.222 75.32 106.143 75.4631 105.986C75.6063 105.826 75.6779 105.606 75.6779 105.327C75.6779 105.005 75.6098 104.757 75.4739 104.583C75.3379 104.409 75.1447 104.322 74.8942 104.322ZM74.2429 107.614C74.126 107.745 74.0402 107.864 73.9852 107.972C73.9304 108.079 73.903 108.182 73.903 108.28C73.903 108.501 74.0019 108.689 74.1999 108.841C74.4004 108.994 74.6509 109.07 74.9515 109.07C75.2926 109.07 75.5872 108.975 75.8353 108.784C76.0858 108.596 76.211 108.383 76.211 108.147C76.211 107.954 76.1502 107.818 76.0285 107.739C75.9069 107.661 75.6731 107.621 75.3272 107.621C75.2914 107.621 75.2126 107.62 75.091 107.618C74.9693 107.615 74.8667 107.614 74.7833 107.614H74.2429ZM75.7422 104.3C75.9021 104.3 76.0631 104.298 76.2253 104.293C76.3899 104.288 76.5546 104.281 76.7191 104.272L76.7013 104.63C76.5962 104.618 76.4806 104.609 76.3542 104.605C76.2301 104.597 76.0858 104.594 75.9212 104.594C76.0333 104.68 76.1179 104.785 76.1752 104.909C76.2348 105.03 76.2647 105.165 76.2647 105.313C76.2647 105.635 76.1299 105.912 75.8603 106.143C75.5931 106.375 75.2639 106.49 74.8727 106.49C74.8321 106.49 74.7749 106.488 74.701 106.483C74.6269 106.476 74.5745 106.471 74.5435 106.469C74.479 106.512 74.4182 106.557 74.361 106.605C74.3038 106.65 74.2512 106.698 74.2036 106.748C74.2393 106.815 74.2799 106.877 74.3253 106.934C74.3729 106.989 74.4277 107.041 74.4898 107.091C74.5638 107.091 74.6699 107.09 74.8083 107.088C75.1423 107.081 75.3618 107.077 75.4667 107.077C75.8984 107.077 76.2087 107.143 76.3972 107.274C76.5879 107.405 76.6833 107.616 76.6833 107.907C76.6833 108.093 76.6309 108.281 76.5259 108.469C76.4233 108.66 76.2778 108.834 76.0893 108.992C75.8961 109.152 75.6731 109.277 75.4201 109.367C75.1697 109.458 74.9205 109.503 74.6723 109.503C74.3025 109.503 73.9924 109.406 73.7419 109.21C73.4938 109.014 73.3697 108.777 73.3697 108.498C73.3697 108.336 73.421 108.176 73.5236 108.018C73.6286 107.863 73.8112 107.68 74.0712 107.467C73.9638 107.369 73.8743 107.269 73.8027 107.167C73.7336 107.064 73.6775 106.952 73.6345 106.83C73.7204 106.749 73.8147 106.673 73.9173 106.601C74.0199 106.527 74.1331 106.455 74.2572 106.383C74.0162 106.307 73.8278 106.179 73.6918 106C73.5559 105.821 73.4878 105.614 73.4878 105.377C73.4878 105.008 73.6238 104.695 73.8958 104.44C74.1701 104.185 74.5125 104.057 74.9228 104.057C75.0731 104.057 75.2138 104.077 75.345 104.118C75.4762 104.156 75.6086 104.217 75.7422 104.3Z" fill="#008000"/>
    <path d="M85.4456 101.089C85.4456 101.121 85.444 101.172 85.4407 101.242C85.4376 101.309 85.436 101.358 85.436 101.39C85.436 101.603 85.4456 101.829 85.4647 102.068C85.4837 102.306 85.5139 102.568 85.5553 102.855L85.083 102.936C85.0321 102.462 84.83 102.095 84.477 101.834C84.1239 101.57 83.658 101.438 83.0791 101.438C82.3411 101.438 81.7685 101.668 81.3614 102.129C80.9575 102.587 80.7555 103.236 80.7555 104.076C80.7555 104.983 80.9845 105.705 81.4425 106.242C81.9038 106.78 82.5192 107.049 83.289 107.049C83.7725 107.049 84.1844 106.939 84.5247 106.719C84.8683 106.5 85.1466 106.166 85.3596 105.717L85.7796 105.913C85.6523 106.164 85.541 106.411 85.4456 106.653C85.3501 106.891 85.269 107.128 85.2022 107.363C84.8173 107.519 84.4404 107.637 84.0715 107.717C83.7057 107.799 83.3526 107.841 83.0123 107.841C81.9053 107.841 81.0083 107.513 80.3213 106.858C79.6342 106.203 79.2908 105.347 79.2908 104.291C79.2908 103.248 79.6502 102.389 80.369 101.714C81.0911 101.037 82.0055 100.698 83.1125 100.698C83.51 100.698 83.8997 100.73 84.2814 100.794C84.6662 100.857 85.0543 100.956 85.4456 101.089ZM87.3862 102.132C87.3719 102.576 87.3636 103.153 87.3612 103.864C87.3588 104.138 87.3576 104.335 87.3576 104.454L87.3504 105.188V105.742V106.49V106.784C87.3504 107.058 87.3802 107.232 87.4399 107.306C87.5019 107.378 87.6177 107.414 87.787 107.414H87.8693V107.664C87.7048 107.652 87.5496 107.644 87.4042 107.639C87.261 107.632 87.1346 107.628 87.0248 107.628C86.9127 107.628 86.7898 107.632 86.6563 107.639C86.5227 107.644 86.3831 107.652 86.2376 107.664L86.234 107.414C86.2507 107.414 86.2709 107.415 86.2949 107.417C86.3211 107.42 86.3402 107.421 86.352 107.421C86.5191 107.421 86.63 107.378 86.6849 107.292C86.7422 107.204 86.7707 106.95 86.7707 106.53V106.265L86.785 103.574V102.958C86.785 102.856 86.7624 102.78 86.7171 102.729C86.6741 102.677 86.6085 102.651 86.5202 102.651C86.4869 102.651 86.4248 102.659 86.3342 102.676C86.3222 102.678 86.3139 102.679 86.3092 102.679L86.2554 102.447C86.4559 102.413 86.6491 102.37 86.8352 102.318C87.0236 102.265 87.2073 102.203 87.3862 102.132ZM89.4903 104.046C89.4736 104.514 89.4605 104.924 89.451 105.277C89.4414 105.628 89.4366 105.871 89.4366 106.007C89.4366 106.518 89.4891 106.859 89.594 107.031C89.6991 107.2 89.8791 107.285 90.1344 107.285C90.2608 107.285 90.4016 107.254 90.5566 107.192C90.7118 107.13 90.8883 107.035 91.0863 106.909C91.0935 106.542 91.0982 106.239 91.1005 106C91.1053 105.762 91.1077 105.586 91.1077 105.474V105.231C91.1077 104.93 91.0827 104.742 91.0326 104.665C90.9825 104.589 90.8859 104.551 90.7428 104.551C90.7188 104.551 90.6927 104.552 90.664 104.554C90.6377 104.554 90.6104 104.556 90.5817 104.558L90.5603 104.329C90.7631 104.315 90.9623 104.292 91.1578 104.261C91.3558 104.23 91.549 104.192 91.7375 104.146C91.7232 104.554 91.7125 104.918 91.7054 105.238C91.6982 105.558 91.6946 105.837 91.6946 106.075C91.6946 106.173 91.6934 106.296 91.691 106.444C91.6887 106.589 91.6874 106.686 91.6874 106.734C91.6874 106.956 91.7065 107.101 91.7447 107.17C91.7828 107.239 91.8544 107.274 91.9594 107.274C91.9833 107.274 92.0107 107.272 92.0416 107.267C92.0751 107.262 92.118 107.253 92.1705 107.238L92.1992 107.46L91.1077 107.736L91.0935 107.202C90.8357 107.398 90.6092 107.541 90.4135 107.632C90.2203 107.722 90.0438 107.768 89.8839 107.768C89.5572 107.768 89.3019 107.674 89.1182 107.485C88.9345 107.297 88.8426 107.034 88.8426 106.698C88.8426 106.612 88.8462 106.432 88.8534 106.158C88.8557 106.043 88.8569 105.954 88.8569 105.889L88.8677 105.488C88.8677 105.422 88.8689 105.337 88.8712 105.234C88.8736 105.129 88.8749 105.058 88.8749 105.02C88.8749 104.814 88.8569 104.678 88.8211 104.612C88.7878 104.545 88.7245 104.511 88.6316 104.511C88.6029 104.511 88.5695 104.514 88.5313 104.519C88.4932 104.523 88.4537 104.528 88.4132 104.533L88.3881 104.3C88.56 104.272 88.7365 104.237 88.9177 104.197C89.1014 104.154 89.2924 104.103 89.4903 104.046ZM93.7665 107.195C93.8762 107.253 93.9859 107.295 94.0957 107.324C94.2054 107.35 94.3235 107.363 94.4499 107.363C94.8459 107.363 95.1572 107.241 95.3839 106.995C95.6105 106.747 95.7239 106.406 95.7239 105.971C95.7239 105.547 95.6213 105.203 95.4161 104.941C95.2133 104.676 94.9497 104.544 94.6253 104.544C94.4894 104.544 94.3485 104.566 94.2031 104.612C94.0575 104.657 93.8953 104.729 93.7163 104.826C93.714 105.034 93.7116 105.231 93.7093 105.417C93.7093 105.6 93.7093 105.771 93.7093 105.929C93.7093 106.291 93.714 106.573 93.7235 106.773C93.7331 106.973 93.7474 107.114 93.7665 107.195ZM93.7593 102.118L93.7558 102.246C93.72 103.182 93.702 103.866 93.702 104.3V104.536C93.9478 104.372 94.1637 104.254 94.3498 104.182C94.5358 104.108 94.7159 104.071 94.8901 104.071C95.2837 104.071 95.6225 104.235 95.9063 104.562C96.1902 104.886 96.3321 105.28 96.3321 105.742C96.3321 106.329 96.1449 106.805 95.7704 107.17C95.3958 107.533 94.8972 107.714 94.2746 107.714C94.0694 107.714 93.869 107.701 93.6735 107.675C93.4778 107.649 93.2846 107.608 93.0938 107.553C93.1081 106.754 93.1188 106.121 93.1259 105.653C93.1331 105.183 93.1366 104.879 93.1366 104.74V104.265C93.1366 104.141 93.1379 103.983 93.1403 103.792C93.1426 103.601 93.1438 103.473 93.1438 103.406C93.1438 103.091 93.1248 102.883 93.0866 102.783C93.0508 102.681 92.9829 102.629 92.8826 102.629C92.8588 102.629 92.829 102.632 92.7932 102.636C92.7597 102.639 92.7192 102.644 92.6715 102.651L92.6321 102.425C92.8158 102.387 93.0019 102.343 93.1904 102.293C93.3789 102.243 93.5684 102.184 93.7593 102.118Z" fill="#FFC500"/>
</svg>