<svg width="343" height="76" viewBox="0 0 343 76" fill="none" xmlns="http://www.w3.org/2000/svg">
    <path d="M21.793 26.2812C20.0742 27.1536 18.4727 27.7982 16.9883 28.2148C15.5039 28.6315 14.0391 28.8398 12.5938 28.8398C8.98698 28.8398 6.07682 27.7461 3.86328 25.5586C1.66276 23.3581 0.5625 20.4674 0.5625 16.8867C0.5625 14.6992 1.00521 12.5703 1.89062 10.5C2.78906 8.42969 4.03906 6.61979 5.64062 5.07031C7.17708 3.59896 8.92839 2.47266 10.8945 1.69141C12.8737 0.910156 14.9766 0.519531 17.2031 0.519531C18.6745 0.519531 20.0872 0.682292 21.4414 1.00781C22.7956 1.33333 24.1693 1.83464 25.5625 2.51172C25.224 3.65755 24.9375 4.79036 24.7031 5.91016C24.4818 7.02995 24.2995 8.13672 24.1562 9.23047L22.3984 8.99609C22.4375 8.67057 22.4635 8.40365 22.4766 8.19531C22.5026 7.97396 22.5156 7.81771 22.5156 7.72656C22.5156 6.34635 21.9622 5.29167 20.8555 4.5625C19.7487 3.82031 18.1732 3.44922 16.1289 3.44922C13.082 3.44922 10.6602 4.62109 8.86328 6.96484C7.06641 9.30859 6.16797 12.4661 6.16797 16.4375C6.16797 19.3932 6.83854 21.7044 8.17969 23.3711C9.53385 25.0378 11.4089 25.8711 13.8047 25.8711C15.6667 25.8711 17.2487 25.4089 18.5508 24.4844C19.8659 23.5469 20.7773 22.2383 21.2852 20.5586L22.9648 20.9297C22.6784 21.9193 22.4375 22.8568 22.2422 23.7422C22.0599 24.6146 21.9102 25.4609 21.793 26.2812ZM34.2725 13.5566C32.9886 13.5566 31.8818 14.4365 30.9521 16.1963C30.0225 17.9561 29.5576 20.1253 29.5576 22.7041C29.5576 24.0654 29.79 25.1058 30.2549 25.8252C30.7308 26.5446 31.417 26.9043 32.3135 26.9043C33.6637 26.9043 34.8092 26.041 35.75 24.3145C36.7018 22.5768 37.1777 20.4518 37.1777 17.9395C37.1777 16.4453 36.9398 15.3441 36.4639 14.6357C35.988 13.9163 35.2575 13.5566 34.2725 13.5566ZM34.9863 11.9463C36.6354 11.9463 37.8861 12.4609 38.7383 13.4902C39.6016 14.5085 40.0332 16.0026 40.0332 17.9727C40.0332 19.1016 39.8118 20.3079 39.3691 21.5918C38.9264 22.8646 38.3288 24.0156 37.5762 25.0449C36.7682 26.1517 35.8496 27.0039 34.8203 27.6016C33.8021 28.1882 32.7285 28.4814 31.5996 28.4814C30.1165 28.4814 28.9323 27.9447 28.0469 26.8711C27.1725 25.7975 26.7354 24.3587 26.7354 22.5547C26.7354 21.2155 26.9512 19.9095 27.3828 18.6367C27.8145 17.3639 28.4342 16.2129 29.2422 15.1836C30.0391 14.1543 30.9411 13.3574 31.9482 12.793C32.9665 12.2285 33.9792 11.9463 34.9863 11.9463ZM51.3223 22.0566L52.5674 14.5361C51.9587 14.182 51.4163 13.9274 50.9404 13.7725C50.4645 13.6064 50.0218 13.5234 49.6123 13.5234C48.251 13.5234 47.1055 14.3978 46.1758 16.1465C45.2461 17.8841 44.7812 20.0534 44.7812 22.6543C44.7812 23.7057 44.903 24.5026 45.1465 25.0449C45.401 25.5872 45.7718 25.8584 46.2588 25.8584C46.5908 25.8584 47.2051 25.5208 48.1016 24.8457C49.0091 24.1706 50.0827 23.2409 51.3223 22.0566ZM51.3555 23.75L48.5332 26.3066C47.7031 27.0592 47.0391 27.5794 46.541 27.8672C46.054 28.1549 45.5947 28.2988 45.1631 28.2988C44.167 28.2988 43.4033 27.8783 42.8721 27.0371C42.3408 26.1849 42.0752 24.9619 42.0752 23.3682C42.0752 20.2249 42.8665 17.5244 44.4492 15.2666C46.043 13.0088 47.9355 11.8799 50.127 11.8799C50.5697 11.8799 51.0179 11.9408 51.4717 12.0625C51.9365 12.1732 52.418 12.3392 52.916 12.5605L53.8623 6.55078C53.8955 6.31836 53.9176 6.08594 53.9287 5.85352C53.9508 5.61003 53.9619 5.36654 53.9619 5.12305C53.9619 4.68034 53.8734 4.37598 53.6963 4.20996C53.5192 4.04395 53.1927 3.96094 52.7168 3.96094C52.5729 3.96094 52.4235 3.96647 52.2686 3.97754C52.1247 3.97754 51.9642 3.98307 51.7871 3.99414L51.7207 3.01465C52.6393 2.92611 53.5635 2.80436 54.4932 2.64941C55.4339 2.49447 56.3802 2.30632 57.332 2.08496C56.3027 7.39746 55.4561 12.1953 54.792 16.4785C54.1279 20.7507 53.7959 23.346 53.7959 24.2646C53.7959 24.8291 53.8457 25.2275 53.9453 25.46C54.056 25.6813 54.2331 25.792 54.4766 25.792C54.6094 25.792 54.7643 25.7367 54.9414 25.626C55.1296 25.5153 55.362 25.3327 55.6387 25.0781L56.6514 24.165L57.1992 25.1113L55.29 26.9873C54.626 27.6292 54.1445 28.0387 53.8457 28.2158C53.5469 28.3929 53.2591 28.4814 52.9824 28.4814C52.3958 28.4814 51.9642 28.2048 51.6875 27.6514C51.4219 27.098 51.2891 26.2402 51.2891 25.0781C51.2891 24.8236 51.2946 24.5967 51.3057 24.3975C51.3167 24.1872 51.3333 23.9714 51.3555 23.75ZM61.4326 20.5127L61.5986 20.4297C65.5387 18.4154 67.5088 16.8604 67.5088 15.7646C67.5088 15.1781 67.2985 14.6689 66.8779 14.2373C66.4574 13.8057 65.9648 13.5898 65.4004 13.5898C64.526 13.5898 63.7402 14.193 63.043 15.3994C62.3457 16.6058 61.8089 18.3102 61.4326 20.5127ZM66.4297 19.3672L61.3496 21.9902V22.1562C61.3496 23.4733 61.5544 24.4749 61.9639 25.1611C62.3844 25.8473 62.9876 26.1904 63.7734 26.1904C64.2383 26.1904 64.8193 25.9857 65.5166 25.5762C66.2249 25.1556 67.127 24.4805 68.2227 23.5508L68.8037 24.5967C67.221 26.0576 65.9593 27.0703 65.0186 27.6348C64.0889 28.1992 63.2422 28.4814 62.4785 28.4814C61.3164 28.4814 60.3757 27.9779 59.6562 26.9707C58.9368 25.9635 58.5771 24.641 58.5771 23.0029C58.5771 21.8408 58.7653 20.5957 59.1416 19.2676C59.529 17.9284 60.027 16.7607 60.6357 15.7646C61.3994 14.5472 62.2738 13.6064 63.2588 12.9424C64.2438 12.2783 65.262 11.9463 66.3135 11.9463C67.387 11.9463 68.2835 12.2894 69.0029 12.9756C69.7334 13.6507 70.0986 14.4753 70.0986 15.4492C70.0986 16.235 69.8773 16.888 69.4346 17.4082C69.0029 17.9173 68.0013 18.5703 66.4297 19.3672Z" fill="#FA0000"/>
    <path d="M100.098 6.45117C99.8431 7.25911 99.6273 8.06152 99.4502 8.8584C99.2842 9.65527 99.1624 10.4466 99.085 11.2324L97.9561 11.0664C97.9782 10.8783 97.9948 10.6956 98.0059 10.5186C98.0169 10.3415 98.0225 10.1644 98.0225 9.9873C98.0225 8.96908 97.5299 8.16667 96.5449 7.58008C95.571 6.98242 94.2539 6.68359 92.5938 6.68359C89.694 6.68359 87.4251 7.70736 85.7871 9.75488C84.1602 11.8024 83.3467 14.6302 83.3467 18.2383C83.3467 20.8724 83.9886 22.9587 85.2725 24.4971C86.5563 26.0355 88.2939 26.8047 90.4854 26.8047C92.0791 26.8047 93.4294 26.4229 94.5361 25.6592C95.6429 24.8844 96.4342 23.7721 96.9102 22.3223L97.9561 22.5547C97.79 23.1081 97.6406 23.7002 97.5078 24.3311C97.375 24.9508 97.2422 25.6979 97.1094 26.5723C95.7591 27.2806 94.4808 27.8118 93.2744 28.166C92.0791 28.5312 90.9668 28.7139 89.9375 28.7139C86.9492 28.7139 84.5531 27.8008 82.749 25.9746C80.945 24.1374 80.043 21.708 80.043 18.6865C80.043 16.8936 80.3916 15.1283 81.0889 13.3906C81.7861 11.653 82.7546 10.1312 83.9941 8.8252C85.2669 7.49707 86.7445 6.47884 88.4268 5.77051C90.1201 5.06217 91.9186 4.70801 93.8223 4.70801C94.8516 4.70801 95.8809 4.85189 96.9102 5.13965C97.9505 5.42741 99.013 5.86458 100.098 6.45117ZM101.99 28.4482C102.688 25.5706 103.23 23.0306 103.617 20.8281C104.005 18.6146 104.198 16.9489 104.198 15.8311C104.198 15.3551 104.126 15.001 103.982 14.7686C103.85 14.5251 103.65 14.4033 103.385 14.4033C103.186 14.4033 102.627 14.6911 101.708 15.2666L101.575 15.3496L100.994 14.4033L101.243 14.2207C103.235 12.7266 104.525 11.9795 105.111 11.9795C105.654 11.9795 106.041 12.1566 106.273 12.5107C106.517 12.8538 106.639 13.4294 106.639 14.2373C106.639 14.9456 106.617 15.6097 106.572 16.2295C106.528 16.8382 106.462 17.3639 106.373 17.8066C107.889 15.3053 108.968 13.7116 109.61 13.0254C110.252 12.3281 110.85 11.9795 111.403 11.9795C111.78 11.9795 112.095 12.1178 112.35 12.3945C112.604 12.6712 112.731 13.0088 112.731 13.4072C112.731 13.6507 112.665 13.9495 112.532 14.3037C112.41 14.6468 112.145 15.2223 111.735 16.0303C111.536 15.7536 111.331 15.5488 111.121 15.416C110.911 15.2832 110.701 15.2168 110.49 15.2168C110.081 15.2168 109.594 15.5046 109.029 16.0801C108.476 16.6445 107.602 17.7845 106.406 19.5C106.03 21.0273 105.715 22.4827 105.46 23.8662C105.205 25.2386 105.012 26.5391 104.879 27.7676L101.99 28.4482ZM122.858 21.7412C123.058 20.734 123.257 19.6383 123.456 18.4541C123.666 17.2588 123.888 15.9085 124.12 14.4033C123.611 14.1156 123.196 13.9219 122.875 13.8223C122.565 13.7116 122.255 13.6562 121.945 13.6562C120.518 13.6562 119.261 14.6191 118.177 16.5449C117.092 18.4707 116.55 20.7451 116.55 23.3682C116.55 24.1982 116.638 24.8236 116.815 25.2441C117.004 25.6536 117.286 25.8584 117.662 25.8584C118.049 25.8584 118.669 25.5208 119.521 24.8457C120.374 24.1706 121.486 23.1357 122.858 21.7412ZM128.652 25.2109L127.59 26.2402C126.804 27.026 126.173 27.5739 125.697 27.8838C125.232 28.1826 124.812 28.332 124.436 28.332C123.871 28.332 123.423 28.0941 123.091 27.6182C122.759 27.1312 122.593 26.4671 122.593 25.626C122.593 25.305 122.604 24.973 122.626 24.6299C122.648 24.2868 122.681 23.9382 122.726 23.584C120.645 25.5983 119.189 26.8932 118.359 27.4688C117.54 28.0443 116.854 28.332 116.301 28.332C115.46 28.332 114.823 27.9668 114.392 27.2363C113.971 26.5059 113.761 25.4212 113.761 23.9824C113.761 22.6764 113.927 21.4202 114.259 20.2139C114.602 18.9964 115.1 17.8509 115.753 16.7773C116.694 15.2721 117.773 14.1211 118.99 13.3242C120.219 12.5273 121.519 12.1289 122.892 12.1289C123.19 12.1289 123.517 12.1621 123.871 12.2285C124.225 12.2839 124.602 12.3724 125 12.4941L127.324 11.5146C126.671 14.6357 126.151 17.4359 125.764 19.915C125.376 22.3942 125.183 24.0212 125.183 24.7959C125.183 25.1501 125.238 25.4157 125.349 25.5928C125.47 25.7699 125.653 25.8584 125.896 25.8584C126.074 25.8584 126.312 25.7477 126.61 25.5264C126.909 25.305 127.407 24.8623 128.104 24.1982L128.652 25.2109ZM133.019 14.0879H132.006C131.917 14.0879 131.74 14.099 131.475 14.1211C131.22 14.1432 130.899 14.1654 130.512 14.1875L130.777 12.9424C131.242 12.9202 131.668 12.8483 132.056 12.7266C132.454 12.5938 132.841 12.3945 133.218 12.1289C133.926 9.09635 135.083 6.69466 136.688 4.92383C138.292 3.15299 140.096 2.26758 142.1 2.26758C142.863 2.26758 143.489 2.43359 143.976 2.76562C144.474 3.09766 144.723 3.51823 144.723 4.02734C144.723 4.23763 144.667 4.45345 144.557 4.6748C144.446 4.88509 144.297 5.07878 144.108 5.25586L143.295 5.96973C142.764 5.44954 142.277 5.07324 141.834 4.84082C141.402 4.59733 140.971 4.47559 140.539 4.47559C139.311 4.47559 138.337 5.12305 137.617 6.41797C136.898 7.71289 136.361 9.79362 136.007 12.6602C136.217 12.6712 136.438 12.6823 136.671 12.6934C136.914 12.6934 137.252 12.6934 137.684 12.6934C138.027 12.6934 138.337 12.6934 138.613 12.6934C138.89 12.6823 139.167 12.6768 139.443 12.6768L139.145 14.2041C139.034 14.193 138.873 14.1875 138.663 14.1875C137.324 14.1432 136.372 14.1211 135.808 14.1211C135.631 15.2611 135.393 16.8659 135.094 18.9355C133.998 26.5059 132.897 31.2816 131.79 33.2627C131.17 34.3805 130.445 35.2604 129.615 35.9023C128.796 36.5553 127.994 36.8818 127.208 36.8818C126.621 36.8818 126.134 36.7435 125.747 36.4668C125.36 36.1901 125.166 35.8525 125.166 35.4541C125.166 35.277 125.205 35.1055 125.282 34.9395C125.349 34.7845 125.454 34.6296 125.598 34.4746L126.179 33.7773C126.61 34.1094 126.981 34.3418 127.291 34.4746C127.601 34.6185 127.9 34.6904 128.188 34.6904C129.007 34.6904 129.687 34.0706 130.229 32.8311C130.772 31.6025 131.192 29.71 131.491 27.1533L133.019 14.0879ZM147.86 8.14453C147.65 8.88607 147.357 10.0482 146.98 11.6309C146.87 12.0957 146.787 12.4388 146.731 12.6602C147.384 12.6602 148.049 12.6546 148.724 12.6436C149.41 12.6214 150.129 12.5938 150.882 12.5605L150.483 14.2207C150.185 14.2096 149.853 14.2041 149.487 14.2041C149.122 14.2041 148.535 14.2041 147.728 14.2041H146.399C145.879 16.484 145.492 18.4762 145.237 20.1807C144.994 21.8851 144.872 23.3128 144.872 24.4639C144.872 24.9508 144.95 25.3327 145.104 25.6094C145.271 25.8861 145.497 26.0244 145.785 26.0244C146.007 26.0244 146.355 25.8473 146.831 25.4932C147.307 25.139 147.954 24.569 148.773 23.7832L149.354 24.8457C147.761 26.4837 146.665 27.5296 146.067 27.9834C145.47 28.4261 144.966 28.6475 144.557 28.6475C143.793 28.6475 143.184 28.2878 142.73 27.5684C142.277 26.849 142.05 25.8695 142.05 24.6299C142.05 23.8219 142.177 22.6654 142.432 21.1602C142.686 19.6439 143.168 17.2975 143.876 14.1211C143.699 14.1211 143.466 14.1266 143.179 14.1377C142.902 14.1488 142.714 14.1543 142.614 14.1543H141.469L141.668 13.042C142.177 13.0199 142.642 12.9313 143.062 12.7764C143.494 12.6214 143.926 12.3779 144.357 12.0459C144.457 11.6475 144.568 11.2324 144.689 10.8008C144.822 10.3581 144.972 9.89323 145.138 9.40625L147.86 8.14453ZM154.899 20.5127L155.065 20.4297C159.006 18.4154 160.976 16.8604 160.976 15.7646C160.976 15.1781 160.765 14.6689 160.345 14.2373C159.924 13.8057 159.432 13.5898 158.867 13.5898C157.993 13.5898 157.207 14.193 156.51 15.3994C155.812 16.6058 155.276 18.3102 154.899 20.5127ZM159.896 19.3672L154.816 21.9902V22.1562C154.816 23.4733 155.021 24.4749 155.431 25.1611C155.851 25.8473 156.454 26.1904 157.24 26.1904C157.705 26.1904 158.286 25.9857 158.983 25.5762C159.692 25.1556 160.594 24.4805 161.689 23.5508L162.271 24.5967C160.688 26.0576 159.426 27.0703 158.485 27.6348C157.556 28.1992 156.709 28.4814 155.945 28.4814C154.783 28.4814 153.842 27.9779 153.123 26.9707C152.404 25.9635 152.044 24.641 152.044 23.0029C152.044 21.8408 152.232 20.5957 152.608 19.2676C152.996 17.9284 153.494 16.7607 154.103 15.7646C154.866 14.5472 155.741 13.6064 156.726 12.9424C157.711 12.2783 158.729 11.9463 159.78 11.9463C160.854 11.9463 161.75 12.2894 162.47 12.9756C163.2 13.6507 163.565 14.4753 163.565 15.4492C163.565 16.235 163.344 16.888 162.901 17.4082C162.47 17.9173 161.468 18.5703 159.896 19.3672ZM165.773 28.4482C166.471 25.5706 167.013 23.0306 167.4 20.8281C167.788 18.6146 167.981 16.9489 167.981 15.8311C167.981 15.3551 167.91 15.001 167.766 14.7686C167.633 14.5251 167.434 14.4033 167.168 14.4033C166.969 14.4033 166.41 14.6911 165.491 15.2666L165.358 15.3496L164.777 14.4033L165.026 14.2207C167.019 12.7266 168.308 11.9795 168.895 11.9795C169.437 11.9795 169.824 12.1566 170.057 12.5107C170.3 12.8538 170.422 13.4294 170.422 14.2373C170.422 14.9456 170.4 15.6097 170.355 16.2295C170.311 16.8382 170.245 17.3639 170.156 17.8066C171.673 15.3053 172.752 13.7116 173.394 13.0254C174.035 12.3281 174.633 11.9795 175.187 11.9795C175.563 11.9795 175.878 12.1178 176.133 12.3945C176.387 12.6712 176.515 13.0088 176.515 13.4072C176.515 13.6507 176.448 13.9495 176.315 14.3037C176.194 14.6468 175.928 15.2223 175.519 16.0303C175.319 15.7536 175.115 15.5488 174.904 15.416C174.694 15.2832 174.484 15.2168 174.273 15.2168C173.864 15.2168 173.377 15.5046 172.812 16.0801C172.259 16.6445 171.385 17.7845 170.189 19.5C169.813 21.0273 169.498 22.4827 169.243 23.8662C168.989 25.2386 168.795 26.5391 168.662 27.7676L165.773 28.4482Z" fill="#00B2FF"/>
    <path d="M90.7866 57.7529L89.8735 62.916C89.8625 62.9824 89.8514 63.0654 89.8403 63.165C89.7739 63.6188 89.7407 63.9453 89.7407 64.1445C89.7407 64.7975 89.9012 65.2568 90.2222 65.5225C90.5431 65.777 91.1076 65.9043 91.9155 65.9043C91.9487 65.9043 92.0041 65.8988 92.0815 65.8877C92.1701 65.8766 92.2365 65.8711 92.2808 65.8711C92.3472 65.8711 92.397 65.8766 92.4302 65.8877C92.4634 65.8877 92.491 65.8932 92.5132 65.9043L92.3472 67C91.3732 66.9336 90.5155 66.8838 89.7739 66.8506C89.0324 66.8174 88.4181 66.8008 87.9312 66.8008C87.5327 66.8008 86.9849 66.8174 86.2876 66.8506C85.6014 66.8838 84.7769 66.9336 83.814 67L83.9966 65.9043H84.4282C85.1808 65.9043 85.701 65.7826 85.9888 65.5391C86.2876 65.2845 86.5366 64.5706 86.7358 63.3975L89.5249 48.041C89.5802 47.7754 89.6245 47.5264 89.6577 47.2939C89.6909 47.0615 89.7075 46.9121 89.7075 46.8457C89.7075 46.3366 89.536 45.9769 89.1929 45.7666C88.8608 45.5563 88.2964 45.4512 87.4995 45.4512L87.6987 44.3555C88.5288 44.4108 89.2316 44.4551 89.8071 44.4883C90.3937 44.5104 90.9139 44.5215 91.3677 44.5215C91.9764 44.5215 92.8674 44.4938 94.0405 44.4385C95.2248 44.3831 96.0991 44.3555 96.6636 44.3555C98.7554 44.3555 100.421 44.8867 101.661 45.9492C102.911 47.0117 103.537 48.4284 103.537 50.1992C103.537 52.457 102.596 54.3053 100.714 55.7441C98.8439 57.1719 96.3869 57.8857 93.3433 57.8857C92.8784 57.8857 92.4357 57.8747 92.0151 57.8525C91.5946 57.8304 91.1851 57.7972 90.7866 57.7529ZM91.0688 56.3584C91.1795 56.3695 91.3345 56.3805 91.5337 56.3916C92.4523 56.458 93.0998 56.4912 93.4761 56.4912C95.5789 56.4912 97.2336 55.96 98.4399 54.8975C99.6463 53.835 100.25 52.3851 100.25 50.5479C100.25 49.109 99.7847 47.9857 98.855 47.1777C97.9364 46.3587 96.6525 45.9492 95.0034 45.9492C94.8042 45.9492 94.5275 45.9603 94.1733 45.9824C93.8192 45.9935 93.3709 46.0212 92.8286 46.0654C92.4412 48.1462 91.9543 50.9408 91.3677 54.4492C91.2349 55.3125 91.1353 55.9489 91.0688 56.3584ZM105.014 67.4482C105.711 64.5706 106.254 62.0306 106.641 59.8281C107.028 57.6146 107.222 55.9489 107.222 54.8311C107.222 54.3551 107.15 54.001 107.006 53.7686C106.874 53.5251 106.674 53.4033 106.409 53.4033C106.209 53.4033 105.651 53.6911 104.732 54.2666L104.599 54.3496L104.018 53.4033L104.267 53.2207C106.259 51.7266 107.549 50.9795 108.135 50.9795C108.678 50.9795 109.065 51.1566 109.297 51.5107C109.541 51.8538 109.663 52.4294 109.663 53.2373C109.663 53.9456 109.64 54.6097 109.596 55.2295C109.552 55.8382 109.486 56.3639 109.397 56.8066C110.913 54.3053 111.992 52.7116 112.634 52.0254C113.276 51.3281 113.874 50.9795 114.427 50.9795C114.804 50.9795 115.119 51.1178 115.374 51.3945C115.628 51.6712 115.755 52.0088 115.755 52.4072C115.755 52.6507 115.689 52.9495 115.556 53.3037C115.434 53.6468 115.169 54.2223 114.759 55.0303C114.56 54.7536 114.355 54.5488 114.145 54.416C113.935 54.2832 113.724 54.2168 113.514 54.2168C113.105 54.2168 112.618 54.5046 112.053 55.0801C111.5 55.6445 110.625 56.7845 109.43 58.5C109.054 60.0273 108.738 61.4827 108.484 62.8662C108.229 64.2386 108.036 65.5391 107.903 66.7676L105.014 67.4482ZM123.525 52.5566C122.241 52.5566 121.134 53.4365 120.205 55.1963C119.275 56.9561 118.81 59.1253 118.81 61.7041C118.81 63.0654 119.042 64.1058 119.507 64.8252C119.983 65.5446 120.669 65.9043 121.566 65.9043C122.916 65.9043 124.062 65.041 125.002 63.3145C125.954 61.5768 126.43 59.4518 126.43 56.9395C126.43 55.4453 126.192 54.3441 125.716 53.6357C125.24 52.9163 124.51 52.5566 123.525 52.5566ZM124.239 50.9463C125.888 50.9463 127.139 51.4609 127.991 52.4902C128.854 53.5085 129.286 55.0026 129.286 56.9727C129.286 58.1016 129.064 59.3079 128.622 60.5918C128.179 61.8646 127.581 63.0156 126.829 64.0449C126.021 65.1517 125.102 66.0039 124.073 66.6016C123.055 67.1882 121.981 67.4814 120.852 67.4814C119.369 67.4814 118.185 66.9447 117.299 65.8711C116.425 64.7975 115.988 63.3587 115.988 61.5547C115.988 60.2155 116.204 58.9095 116.635 57.6367C117.067 56.3639 117.687 55.2129 118.495 54.1836C119.292 53.1543 120.194 52.3574 121.201 51.793C122.219 51.2285 123.232 50.9463 124.239 50.9463ZM135.81 67.2656C134.194 68.0957 133.087 68.7874 132.49 69.3408C131.892 69.9053 131.593 70.4974 131.593 71.1172C131.593 71.9141 132.086 72.6003 133.071 73.1758C134.056 73.7513 135.273 74.0391 136.723 74.0391C138.029 74.0391 139.114 73.7458 139.977 73.1592C140.851 72.5837 141.289 71.8698 141.289 71.0176C141.289 70.1764 139.938 69.1471 137.238 67.9297C136.629 67.653 136.153 67.4316 135.81 67.2656ZM138.566 52.208C137.503 52.208 136.612 52.8057 135.893 54.001C135.185 55.1852 134.831 56.6628 134.831 58.4336C134.831 59.3522 135.024 60.0605 135.412 60.5586C135.81 61.0456 136.375 61.2891 137.105 61.2891C138.234 61.2891 139.158 60.7135 139.877 59.5625C140.608 58.4115 140.973 56.945 140.973 55.1631C140.973 54.2334 140.763 53.5085 140.342 52.9883C139.922 52.4681 139.33 52.208 138.566 52.208ZM146.219 51.1289L145.505 52.9883C145.483 52.9883 145.45 52.9938 145.406 53.0049C144.974 53.0381 144.642 53.0547 144.41 53.0547C144.122 53.0547 143.458 52.9772 142.417 52.8223H142.368C142.81 53.2207 143.131 53.6579 143.331 54.1338C143.53 54.6097 143.629 55.1908 143.629 55.877C143.629 57.1719 143.286 58.3229 142.6 59.3301C141.925 60.3372 140.979 61.0898 139.761 61.5879C139.462 61.7096 139.053 61.8812 138.533 62.1025C136.131 63.0765 134.93 63.7129 134.93 64.0117C134.93 64.2995 135.556 64.6868 136.806 65.1738C137.238 65.3398 137.575 65.4727 137.819 65.5723C140.442 66.6458 142.119 67.4925 142.849 68.1123C143.591 68.7432 143.961 69.4847 143.961 70.3369C143.961 71.7425 143.076 73.0153 141.305 74.1553C139.545 75.3063 137.487 75.8818 135.129 75.8818C133.292 75.8818 131.792 75.4723 130.63 74.6533C129.457 73.8343 128.871 72.7995 128.871 71.5488C128.871 70.7188 129.302 69.9329 130.166 69.1914C131.029 68.4609 132.512 67.6309 134.615 66.7012C133.707 66.2917 133.049 65.9209 132.639 65.5889C132.241 65.2458 132.042 64.9027 132.042 64.5596C132.042 64.2275 132.274 63.89 132.739 63.5469C133.204 63.2038 134.216 62.6891 135.777 62.0029C135.71 62.014 135.639 62.0251 135.561 62.0361C135.495 62.0361 135.384 62.0361 135.229 62.0361C134.244 62.0361 133.469 61.7096 132.905 61.0566C132.351 60.3926 132.075 59.474 132.075 58.3008C132.075 56.2754 132.744 54.5433 134.083 53.1045C135.434 51.6657 137.05 50.9463 138.931 50.9463C139.54 50.9463 140.359 51.0404 141.388 51.2285C142.417 51.4056 143.142 51.4941 143.563 51.4941C143.895 51.4941 144.277 51.4665 144.708 51.4111C145.151 51.3447 145.655 51.2507 146.219 51.1289ZM147.68 67.4482C148.377 64.5706 148.92 62.0306 149.307 59.8281C149.694 57.6146 149.888 55.9489 149.888 54.8311C149.888 54.3551 149.816 54.001 149.672 53.7686C149.54 53.5251 149.34 53.4033 149.075 53.4033C148.875 53.4033 148.317 53.6911 147.398 54.2666L147.265 54.3496L146.684 53.4033L146.933 53.2207C148.925 51.7266 150.215 50.9795 150.801 50.9795C151.344 50.9795 151.731 51.1566 151.963 51.5107C152.207 51.8538 152.329 52.4294 152.329 53.2373C152.329 53.9456 152.306 54.6097 152.262 55.2295C152.218 55.8382 152.152 56.3639 152.063 56.8066C153.579 54.3053 154.658 52.7116 155.3 52.0254C155.942 51.3281 156.54 50.9795 157.093 50.9795C157.47 50.9795 157.785 51.1178 158.04 51.3945C158.294 51.6712 158.421 52.0088 158.421 52.4072C158.421 52.6507 158.355 52.9495 158.222 53.3037C158.1 53.6468 157.835 54.2223 157.425 55.0303C157.226 54.7536 157.021 54.5488 156.811 54.416C156.601 54.2832 156.39 54.2168 156.18 54.2168C155.771 54.2168 155.284 54.5046 154.719 55.0801C154.166 55.6445 153.292 56.7845 152.096 58.5C151.72 60.0273 151.404 61.4827 151.15 62.8662C150.895 64.2386 150.702 65.5391 150.569 66.7676L147.68 67.4482ZM168.548 60.7412C168.748 59.734 168.947 58.6383 169.146 57.4541C169.356 56.2588 169.578 54.9085 169.81 53.4033C169.301 53.1156 168.886 52.9219 168.565 52.8223C168.255 52.7116 167.945 52.6562 167.635 52.6562C166.208 52.6562 164.951 53.6191 163.867 55.5449C162.782 57.4707 162.24 59.7451 162.24 62.3682C162.24 63.1982 162.328 63.8236 162.505 64.2441C162.694 64.6536 162.976 64.8584 163.352 64.8584C163.739 64.8584 164.359 64.5208 165.211 63.8457C166.064 63.1706 167.176 62.1357 168.548 60.7412ZM174.342 64.2109L173.28 65.2402C172.494 66.026 171.863 66.5739 171.387 66.8838C170.922 67.1826 170.502 67.332 170.125 67.332C169.561 67.332 169.113 67.0941 168.781 66.6182C168.449 66.1312 168.283 65.4671 168.283 64.626C168.283 64.305 168.294 63.973 168.316 63.6299C168.338 63.2868 168.371 62.9382 168.416 62.584C166.335 64.5983 164.879 65.8932 164.049 66.4688C163.23 67.0443 162.544 67.332 161.991 67.332C161.15 67.332 160.513 66.9668 160.082 66.2363C159.661 65.5059 159.451 64.4212 159.451 62.9824C159.451 61.6764 159.617 60.4202 159.949 59.2139C160.292 57.9964 160.79 56.8509 161.443 55.7773C162.384 54.2721 163.463 53.1211 164.68 52.3242C165.909 51.5273 167.209 51.1289 168.582 51.1289C168.88 51.1289 169.207 51.1621 169.561 51.2285C169.915 51.2839 170.292 51.3724 170.69 51.4941L173.014 50.5146C172.361 53.6357 171.841 56.4359 171.454 58.915C171.066 61.3942 170.873 63.0212 170.873 63.7959C170.873 64.1501 170.928 64.4157 171.039 64.5928C171.16 64.7699 171.343 64.8584 171.586 64.8584C171.764 64.8584 172.001 64.7477 172.3 64.5264C172.599 64.305 173.097 63.8623 173.794 63.1982L174.342 64.2109ZM176.085 67.4814C176.44 65.8434 176.833 63.8125 177.264 61.3887C177.319 61.0677 177.358 60.8353 177.38 60.6914L177.696 58.9814C177.873 57.9521 178.011 57.028 178.111 56.209C178.21 55.39 178.26 54.8366 178.26 54.5488C178.26 54.2168 178.194 53.9456 178.061 53.7354C177.928 53.514 177.757 53.4033 177.546 53.4033C177.425 53.4033 177.248 53.4642 177.015 53.5859C176.783 53.6966 176.395 53.929 175.853 54.2832L175.372 53.4033C175.648 53.2041 176.03 52.9163 176.517 52.54C177.934 51.4554 178.891 50.9131 179.389 50.9131C179.854 50.9131 180.225 51.1123 180.501 51.5107C180.778 51.8981 180.917 52.4238 180.917 53.0879C180.917 53.6081 180.845 54.5101 180.701 55.7939C180.679 55.9821 180.662 56.126 180.651 56.2256C181.005 55.8382 181.498 55.2959 182.128 54.5986C184.353 52.1416 185.864 50.9131 186.661 50.9131C187.314 50.9131 187.845 51.1953 188.254 51.7598C188.664 52.3132 188.869 53.0436 188.869 53.9512C188.869 54.2721 188.858 54.6263 188.835 55.0137C188.813 55.39 188.769 55.8493 188.703 56.3916C188.88 56.1924 189.134 55.8991 189.466 55.5117C192.045 52.446 193.844 50.9131 194.862 50.9131C195.526 50.9131 196.063 51.1898 196.472 51.7432C196.893 52.2965 197.103 53.0215 197.103 53.918C197.103 55.2018 196.837 56.9893 196.306 59.2803C195.775 61.5602 195.509 63.1152 195.509 63.9453C195.509 64.2773 195.565 64.5485 195.675 64.7588C195.786 64.958 195.924 65.0576 196.09 65.0576C196.234 65.0576 196.494 64.9027 196.871 64.5928C197.258 64.2718 197.712 63.8291 198.232 63.2646L198.796 64.2773C197.435 65.694 196.511 66.585 196.024 66.9502C195.548 67.3044 195.139 67.4814 194.795 67.4814C194.165 67.4814 193.678 67.249 193.334 66.7842C192.991 66.3083 192.82 65.6442 192.82 64.792C192.82 63.5413 193.097 61.7484 193.65 59.4131C194.203 57.0778 194.48 55.4951 194.48 54.665C194.48 54.2666 194.408 53.9567 194.264 53.7354C194.12 53.514 193.921 53.4033 193.667 53.4033C193.412 53.4033 192.964 53.6966 192.322 54.2832C191.68 54.8587 190.396 56.1758 188.47 58.2344C188.083 60.3151 187.79 62.0029 187.59 63.2979C187.402 64.5928 187.264 65.7272 187.175 66.7012L184.253 67.4814C184.906 64.0726 185.416 61.2503 185.781 59.0146C186.146 56.779 186.329 55.3512 186.329 54.7314C186.329 54.3219 186.251 54.001 186.096 53.7686C185.952 53.5251 185.77 53.4033 185.548 53.4033C185.238 53.4033 183.794 54.6761 181.215 57.2217L180.435 57.9854C180.026 60.1436 179.716 61.8757 179.505 63.1816C179.295 64.4876 179.146 65.6331 179.057 66.6182L176.085 67.4814ZM201.021 67.4814C201.375 65.8434 201.768 63.8125 202.2 61.3887C202.255 61.0677 202.294 60.8353 202.316 60.6914L202.631 58.9814C202.808 57.9521 202.947 57.028 203.046 56.209C203.146 55.39 203.196 54.8366 203.196 54.5488C203.196 54.2168 203.129 53.9456 202.997 53.7354C202.864 53.514 202.692 53.4033 202.482 53.4033C202.36 53.4033 202.183 53.4642 201.951 53.5859C201.718 53.6966 201.331 53.929 200.789 54.2832L200.307 53.4033C200.584 53.2041 200.966 52.9163 201.453 52.54C202.869 51.4554 203.827 50.9131 204.325 50.9131C204.79 50.9131 205.16 51.1123 205.437 51.5107C205.714 51.8981 205.852 52.4238 205.852 53.0879C205.852 53.6081 205.78 54.5101 205.636 55.7939C205.614 55.9821 205.597 56.126 205.586 56.2256C205.941 55.8382 206.433 55.2959 207.064 54.5986C209.289 52.1416 210.799 50.9131 211.596 50.9131C212.249 50.9131 212.78 51.1953 213.19 51.7598C213.599 52.3132 213.804 53.0436 213.804 53.9512C213.804 54.2721 213.793 54.6263 213.771 55.0137C213.749 55.39 213.705 55.8493 213.638 56.3916C213.815 56.1924 214.07 55.8991 214.402 55.5117C216.981 52.446 218.779 50.9131 219.797 50.9131C220.461 50.9131 220.998 51.1898 221.408 51.7432C221.828 52.2965 222.039 53.0215 222.039 53.918C222.039 55.2018 221.773 56.9893 221.242 59.2803C220.71 61.5602 220.445 63.1152 220.445 63.9453C220.445 64.2773 220.5 64.5485 220.611 64.7588C220.722 64.958 220.86 65.0576 221.026 65.0576C221.17 65.0576 221.43 64.9027 221.806 64.5928C222.194 64.2718 222.647 63.8291 223.167 63.2646L223.732 64.2773C222.371 65.694 221.446 66.585 220.959 66.9502C220.484 67.3044 220.074 67.4814 219.731 67.4814C219.1 67.4814 218.613 67.249 218.27 66.7842C217.927 66.3083 217.755 65.6442 217.755 64.792C217.755 63.5413 218.032 61.7484 218.585 59.4131C219.139 57.0778 219.416 55.4951 219.416 54.665C219.416 54.2666 219.344 53.9567 219.2 53.7354C219.056 53.514 218.857 53.4033 218.602 53.4033C218.347 53.4033 217.899 53.6966 217.257 54.2832C216.615 54.8587 215.332 56.1758 213.406 58.2344C213.018 60.3151 212.725 62.0029 212.526 63.2979C212.338 64.5928 212.199 65.7272 212.111 66.7012L209.189 67.4814C209.842 64.0726 210.351 61.2503 210.716 59.0146C211.082 56.779 211.264 55.3512 211.264 54.7314C211.264 54.3219 211.187 54.001 211.032 53.7686C210.888 53.5251 210.705 53.4033 210.484 53.4033C210.174 53.4033 208.73 54.6761 206.151 57.2217L205.371 57.9854C204.961 60.1436 204.651 61.8757 204.441 63.1816C204.231 64.4876 204.081 65.6331 203.993 66.6182L201.021 67.4814ZM232.182 63.2314L232.763 64.2109C231.402 65.6165 230.456 66.513 229.924 66.9004C229.393 67.2878 228.923 67.4814 228.513 67.4814C227.927 67.4814 227.456 67.238 227.102 66.751C226.748 66.2529 226.571 65.5889 226.571 64.7588C226.571 63.7184 226.897 61.9808 227.55 59.5459C228.214 57.111 228.546 55.3568 228.546 54.2832C228.546 54.0065 228.48 53.7852 228.347 53.6191C228.214 53.4531 228.043 53.3701 227.833 53.3701C227.655 53.3701 227.423 53.4421 227.135 53.5859C226.847 53.7298 226.488 53.9512 226.056 54.25L225.558 53.3701L227.766 51.7598C228.187 51.4499 228.552 51.2285 228.862 51.0957C229.172 50.9518 229.465 50.8799 229.742 50.8799C230.262 50.8799 230.671 51.0957 230.97 51.5273C231.28 51.9479 231.435 52.529 231.435 53.2705C231.435 54.0785 231.147 55.6611 230.572 58.0186C230.439 58.5498 230.339 58.9482 230.273 59.2139C229.963 60.4645 229.725 61.4993 229.559 62.3184C229.404 63.1374 229.327 63.7018 229.327 64.0117C229.327 64.2884 229.388 64.5153 229.509 64.6924C229.631 64.8695 229.786 64.958 229.974 64.958C230.151 64.958 230.384 64.8473 230.671 64.626C230.959 64.4046 231.463 63.9398 232.182 63.2314ZM232.049 41.832L232.996 42.8945C233.261 43.1712 233.444 43.4202 233.543 43.6416C233.654 43.8519 233.709 44.0677 233.709 44.2891C233.709 44.5215 233.626 44.7428 233.46 44.9531C233.306 45.1634 233.073 45.3626 232.763 45.5508L231.302 46.3643L230.24 45.1025C230.018 44.8258 229.875 44.61 229.808 44.4551C229.742 44.2891 229.708 44.1175 229.708 43.9404C229.708 43.6859 229.775 43.4645 229.908 43.2764C230.041 43.0771 230.267 42.8835 230.588 42.6953L232.049 41.832ZM239.985 55.7109L242.674 53.0879C243.615 52.1914 244.323 51.5993 244.799 51.3115C245.286 51.0238 245.746 50.8799 246.177 50.8799C246.908 50.8799 247.5 51.2008 247.954 51.8428C248.418 52.4847 248.651 53.3314 248.651 54.3828C248.651 55.4564 248.38 57.1165 247.837 59.3633C247.295 61.599 247.024 63.1927 247.024 64.1445C247.024 64.4323 247.079 64.6536 247.19 64.8086C247.301 64.9525 247.461 65.0244 247.671 65.0244C247.771 65.0244 247.893 64.9857 248.037 64.9082C248.192 64.8197 248.341 64.7035 248.485 64.5596L249.747 63.3311L250.328 64.2109L248.518 66.0537C248.086 66.4964 247.655 66.8451 247.223 67.0996C246.803 67.3542 246.432 67.4814 246.111 67.4814C245.557 67.4814 245.104 67.2435 244.75 66.7676C244.406 66.2806 244.235 65.6442 244.235 64.8584C244.235 63.9176 244.517 62.263 245.082 59.8945C245.646 57.515 245.928 55.7829 245.928 54.6982C245.928 54.2887 245.84 53.9622 245.663 53.7188C245.497 53.4642 245.27 53.3369 244.982 53.3369C244.55 53.3369 243.228 54.3607 241.014 56.4082C240.428 56.9505 239.968 57.3766 239.636 57.6865L238.59 63.5303C238.568 63.641 238.535 63.807 238.491 64.0283C238.258 65.2126 238.12 66.1201 238.076 66.751L235.121 67.4814C235.851 64.305 236.427 61.5436 236.847 59.1973C237.279 56.8509 237.495 55.3125 237.495 54.582C237.495 54.1393 237.445 53.8239 237.345 53.6357C237.246 53.4365 237.085 53.3369 236.864 53.3369C236.731 53.3369 236.51 53.4144 236.2 53.5693C235.901 53.7243 235.519 53.9512 235.054 54.25L234.606 53.3701C234.728 53.2705 234.905 53.1266 235.137 52.9385C236.842 51.5661 237.982 50.8799 238.557 50.8799C239.111 50.8799 239.52 51.0902 239.786 51.5107C240.051 51.9202 240.184 52.5622 240.184 53.4365C240.184 53.7464 240.167 54.0951 240.134 54.4824C240.101 54.8698 240.051 55.2793 239.985 55.7109ZM256.503 67.2656C254.888 68.0957 253.781 68.7874 253.183 69.3408C252.585 69.9053 252.287 70.4974 252.287 71.1172C252.287 71.9141 252.779 72.6003 253.764 73.1758C254.749 73.7513 255.967 74.0391 257.417 74.0391C258.722 74.0391 259.807 73.7458 260.67 73.1592C261.545 72.5837 261.982 71.8698 261.982 71.0176C261.982 70.1764 260.632 69.1471 257.931 67.9297C257.322 67.653 256.847 67.4316 256.503 67.2656ZM259.259 52.208C258.197 52.208 257.306 52.8057 256.586 54.001C255.878 55.1852 255.524 56.6628 255.524 58.4336C255.524 59.3522 255.718 60.0605 256.105 60.5586C256.503 61.0456 257.068 61.2891 257.798 61.2891C258.927 61.2891 259.851 60.7135 260.571 59.5625C261.301 58.4115 261.667 56.945 261.667 55.1631C261.667 54.2334 261.456 53.5085 261.036 52.9883C260.615 52.4681 260.023 52.208 259.259 52.208ZM266.913 51.1289L266.199 52.9883C266.177 52.9883 266.143 52.9938 266.099 53.0049C265.667 53.0381 265.335 53.0547 265.103 53.0547C264.815 53.0547 264.151 52.9772 263.111 52.8223H263.061C263.504 53.2207 263.825 53.6579 264.024 54.1338C264.223 54.6097 264.323 55.1908 264.323 55.877C264.323 57.1719 263.98 58.3229 263.293 59.3301C262.618 60.3372 261.672 61.0898 260.455 61.5879C260.156 61.7096 259.746 61.8812 259.226 62.1025C256.824 63.0765 255.624 63.7129 255.624 64.0117C255.624 64.2995 256.249 64.6868 257.5 65.1738C257.931 65.3398 258.269 65.4727 258.512 65.5723C261.135 66.6458 262.812 67.4925 263.542 68.1123C264.284 68.7432 264.655 69.4847 264.655 70.3369C264.655 71.7425 263.769 73.0153 261.999 74.1553C260.239 75.3063 258.18 75.8818 255.823 75.8818C253.986 75.8818 252.486 75.4723 251.324 74.6533C250.151 73.8343 249.564 72.7995 249.564 71.5488C249.564 70.7188 249.996 69.9329 250.859 69.1914C251.722 68.4609 253.205 67.6309 255.308 66.7012C254.401 66.2917 253.742 65.9209 253.333 65.5889C252.934 65.2458 252.735 64.9027 252.735 64.5596C252.735 64.2275 252.967 63.89 253.432 63.5469C253.897 63.2038 254.91 62.6891 256.47 62.0029C256.404 62.014 256.332 62.0251 256.254 62.0361C256.188 62.0361 256.077 62.0361 255.922 62.0361C254.937 62.0361 254.163 61.7096 253.598 61.0566C253.045 60.3926 252.768 59.474 252.768 58.3008C252.768 56.2754 253.438 54.5433 254.777 53.1045C256.127 51.6657 257.743 50.9463 259.625 50.9463C260.233 50.9463 261.052 51.0404 262.082 51.2285C263.111 51.4056 263.836 51.4941 264.256 51.4941C264.588 51.4941 264.97 51.4665 265.402 51.4111C265.845 51.3447 266.348 51.2507 266.913 51.1289Z" fill="#008000"/>
    <path d="M297.442 65.2812C295.723 66.1536 294.122 66.7982 292.637 67.2148C291.153 67.6315 289.688 67.8398 288.243 67.8398C284.636 67.8398 281.726 66.7461 279.512 64.5586C277.312 62.3581 276.211 59.4674 276.211 55.8867C276.211 53.6992 276.654 51.5703 277.54 49.5C278.438 47.4297 279.688 45.6198 281.29 44.0703C282.826 42.599 284.577 41.4727 286.543 40.6914C288.523 39.9102 290.625 39.5195 292.852 39.5195C294.323 39.5195 295.736 39.6823 297.09 40.0078C298.444 40.3333 299.818 40.8346 301.211 41.5117C300.873 42.6576 300.586 43.7904 300.352 44.9102C300.131 46.0299 299.948 47.1367 299.805 48.2305L298.047 47.9961C298.086 47.6706 298.112 47.4036 298.125 47.1953C298.152 46.974 298.165 46.8177 298.165 46.7266C298.165 45.3464 297.611 44.2917 296.504 43.5625C295.398 42.8203 293.822 42.4492 291.778 42.4492C288.731 42.4492 286.309 43.6211 284.512 45.9648C282.715 48.3086 281.817 51.4661 281.817 55.4375C281.817 58.3932 282.487 60.7044 283.829 62.3711C285.183 64.0378 287.058 64.8711 289.454 64.8711C291.316 64.8711 292.898 64.4089 294.2 63.4844C295.515 62.5469 296.426 61.2383 296.934 59.5586L298.614 59.9297C298.327 60.9193 298.086 61.8568 297.891 62.7422C297.709 63.6146 297.559 64.4609 297.442 65.2812ZM309.39 64.2773L307.846 65.7383C307.149 66.4023 306.601 66.8561 306.203 67.0996C305.804 67.3542 305.45 67.4814 305.14 67.4814C304.498 67.4814 304.006 67.2435 303.663 66.7676C303.331 66.2917 303.165 65.5999 303.165 64.6924C303.165 63.9508 303.414 62.3073 303.912 59.7617C304.188 58.3561 304.404 57.2438 304.559 56.4248L305.24 52.6895C305.671 50.2656 306.003 48.3011 306.236 46.7959C306.479 45.2907 306.601 44.3776 306.601 44.0566C306.601 43.7025 306.518 43.4424 306.352 43.2764C306.186 43.1104 305.926 43.0273 305.572 43.0273C305.505 43.0273 305.373 43.0329 305.173 43.0439C304.974 43.055 304.814 43.0605 304.692 43.0605L304.592 42.1475C305.312 42.0479 306.103 41.915 306.966 41.749C307.83 41.5719 308.842 41.3506 310.004 41.085C308.798 47.1169 307.807 52.3021 307.033 56.6406C306.269 60.9792 305.887 63.4362 305.887 64.0117C305.887 64.3216 305.943 64.5706 306.053 64.7588C306.175 64.9359 306.335 65.0244 306.535 65.0244C306.656 65.0244 306.817 64.9635 307.016 64.8418C307.215 64.7201 307.459 64.5319 307.747 64.2773L308.875 63.3643L309.39 64.2773ZM326.988 64.2109L324.697 66.3525C324.287 66.751 323.917 67.0332 323.584 67.1992C323.264 67.3652 322.931 67.4482 322.588 67.4482C322.09 67.4482 321.686 67.2103 321.376 66.7344C321.078 66.2474 320.928 65.5999 320.928 64.792C320.928 64.5596 320.945 64.2829 320.978 63.9619C321.022 63.6299 321.105 63.1152 321.227 62.418C319.18 64.5098 317.73 65.8711 316.877 66.502C316.025 67.1328 315.3 67.4482 314.703 67.4482C314.072 67.4482 313.546 67.1549 313.125 66.5684C312.705 65.9818 312.495 65.2292 312.495 64.3105C312.495 63.5358 312.827 61.7926 313.491 59.0811C313.657 58.4391 313.778 57.9521 313.856 57.6201C314.088 56.7015 314.26 55.9655 314.371 55.4121C314.481 54.8477 314.537 54.4271 314.537 54.1504C314.537 53.929 314.481 53.752 314.371 53.6191C314.26 53.4753 314.122 53.4033 313.956 53.4033C313.845 53.4033 313.629 53.4808 313.308 53.6357C312.987 53.7907 312.544 54.0286 311.98 54.3496L311.515 53.4365C312.544 52.6729 313.446 52.0807 314.221 51.6602C314.996 51.2285 315.544 51.0127 315.865 51.0127C316.319 51.0127 316.673 51.2064 316.927 51.5938C317.193 51.9811 317.326 52.5179 317.326 53.2041C317.326 54.0674 316.983 55.7386 316.296 58.2178C315.621 60.6969 315.284 62.5563 315.284 63.7959C315.284 64.1833 315.35 64.471 315.483 64.6592C315.616 64.8363 315.82 64.9248 316.097 64.9248C316.407 64.9248 316.933 64.6204 317.674 64.0117C318.427 63.3919 319.683 62.2132 321.443 60.4756C321.863 58.4834 322.201 56.8011 322.456 55.4287C322.721 54.0452 322.926 52.8112 323.07 51.7266L326.058 51.0127L325.693 52.6562C325.062 55.3457 324.719 56.8454 324.664 57.1553L324.265 59.2803C324.066 60.2874 323.905 61.2503 323.784 62.1689C323.673 63.0876 323.618 63.735 323.618 64.1113C323.618 64.3659 323.667 64.5651 323.767 64.709C323.867 64.8529 324 64.9248 324.166 64.9248C324.32 64.9248 324.608 64.7754 325.029 64.4766C325.449 64.1777 325.931 63.7738 326.473 63.2646L326.988 64.2109ZM332.25 64.4434C332.605 64.8529 332.986 65.1628 333.396 65.373C333.817 65.5723 334.259 65.6719 334.724 65.6719C336.218 65.6719 337.458 64.8031 338.443 63.0654C339.439 61.3278 339.937 59.1032 339.937 56.3916C339.937 55.318 339.793 54.5046 339.505 53.9512C339.229 53.3978 338.814 53.1211 338.26 53.1211C337.84 53.1211 337.242 53.3812 336.467 53.9014C335.693 54.4215 334.636 55.2738 333.296 56.458L332.549 61.2891C332.439 61.9642 332.361 62.5508 332.317 63.0488C332.273 63.5469 332.25 64.0117 332.25 64.4434ZM335.953 41.085C335.687 42.3467 335.449 43.5254 335.239 44.6211C335.028 45.7168 334.857 46.6576 334.724 47.4434L333.479 54.7314L335.272 53.0879C336.334 52.1361 337.148 51.5107 337.712 51.2119C338.288 50.902 338.858 50.7471 339.422 50.7471C340.507 50.7471 341.343 51.2008 341.929 52.1084C342.527 53.0049 342.826 54.2721 342.826 55.9102C342.826 59.0091 341.89 61.7152 340.02 64.0283C338.15 66.3304 336.002 67.4814 333.579 67.4814C332.649 67.4814 331.83 67.2767 331.122 66.8672C330.424 66.4466 329.816 65.7992 329.295 64.9248L332.45 45.584C332.516 45.1855 332.566 44.859 332.599 44.6045C332.632 44.3499 332.649 44.1562 332.649 44.0234C332.649 43.6582 332.56 43.3981 332.383 43.2432C332.206 43.0771 331.924 42.9941 331.537 42.9941C331.326 42.9941 331.166 42.9997 331.055 43.0107C330.944 43.0218 330.834 43.0384 330.723 43.0605L330.624 42.1475C331.398 42.0368 332.217 41.8984 333.081 41.7324C333.955 41.5553 334.912 41.3395 335.953 41.085Z" fill="#FFC500"/>
</svg>