<svg width="50" height="26" viewBox="0 0 50 26" fill="none" xmlns="http://www.w3.org/2000/svg">
    <path d="M10.4415 0C7.67221 -3.30229e-08 5.01638 1.10008 3.05823 3.05823C1.10008 5.01638 2.42095e-07 7.6722 0 10.4414C-2.42095e-07 13.2107 1.10008 15.8665 3.05823 17.8247C5.01638 19.7828 7.67221 20.8829 10.4415 20.8829L10.4415 17.7505C8.50298 17.7505 6.6439 16.9804 5.2732 15.6097C3.90249 14.239 3.13244 12.3799 3.13244 10.4414C3.13244 8.50298 3.90249 6.6439 5.2732 5.2732C6.6439 3.90249 8.50298 3.13243 10.4415 3.13243L10.4415 0Z" fill="#D48901"/>
    <path d="M24.9417 12.3759C25.2733 13.6386 24.886 12.6241 25.8118 13.5159C26.0438 13.7394 25.9611 13.6533 27.2025 13.9059C28.4439 14.1585 29.7288 14.0472 30.9123 13.5846C32.0958 13.122 33.1307 12.3265 33.9002 11.2878C34.6696 10.2492 35.1431 9.00881 35.267 7.70666C35.391 6.4045 35.1605 5.09244 34.6017 3.91856C34.0428 2.74469 33.1778 1.75574 32.1042 1.06334C31.0307 0.370935 29.7914 0.00265413 28.5262 6.10352e-05L28.5202 3.13191C29.2209 3.13335 29.9072 3.3373 30.5017 3.72075C31.0962 4.1042 31.5753 4.65188 31.8848 5.30198C32.1943 5.95207 32.3219 6.67869 32.2533 7.39982C32.1846 8.12096 31.9224 8.80789 31.4963 9.38308C31.0702 9.95828 30.4971 10.3988 29.8416 10.655C29.1862 10.9112 28.4746 10.9729 27.7871 10.833C27.0997 10.6931 26.4637 10.3572 25.951 9.86333C25.4383 9.36944 25.1253 8.70441 24.9417 8.00513V12.3759Z" fill="#D48901"/>
    <path d="M10.4417 0H28.5401V3.13243H10.4417V0Z" fill="#D48901"/>
    <path d="M10.4417 0H28.5401V3.13243H10.4417V0Z" fill="#D48901"/>
    <path d="M10.4417 0H28.5401V3.13243H10.4417V0Z" fill="#D48901"/>
    <path d="M9.09839 19.3166C9.09839 18.4516 9.79961 17.7504 10.6646 17.7504H19.2498C20.1148 17.7504 20.816 18.4516 20.816 19.3166V19.3166C20.816 20.1816 20.1148 20.8828 19.2498 20.8828H10.6646C9.7996 20.8828 9.09839 20.1816 9.09839 19.3166V19.3166Z" fill="#D48901"/>
    <path d="M9.09839 19.3166C9.09839 18.4516 9.79961 17.7504 10.6646 17.7504H19.2498C20.1148 17.7504 20.816 18.4516 20.816 19.3166V19.3166C20.816 20.1816 20.1148 20.8828 19.2498 20.8828H10.6646C9.7996 20.8828 9.09839 20.1816 9.09839 19.3166V19.3166Z" fill="#D48901"/>
    <path d="M9.09839 19.3166C9.09839 18.4516 9.79961 17.7504 10.6646 17.7504H19.2498C20.1148 17.7504 20.816 18.4516 20.816 19.3166V19.3166C20.816 20.1816 20.1148 20.8828 19.2498 20.8828H10.6646C9.7996 20.8828 9.09839 20.1816 9.09839 19.3166V19.3166Z" fill="#D48901"/>
    <rect x="24.9417" y="11.0211" width="2.78438" height="14.85" rx="1.39219" fill="#D48901"/>
    <path d="M22.9213 8.04458C23.2665 7.66562 23.2423 7.06897 22.8024 6.80598C22.2867 6.49773 21.7134 6.29101 21.1136 6.20053C20.206 6.06363 19.2782 6.19894 18.4475 6.58933C17.6169 6.97972 16.9206 7.60767 16.4468 8.39377C15.9731 9.17986 15.743 10.0888 15.7858 11.0056C15.8286 11.9225 16.1423 12.806 16.6873 13.5446C17.2322 14.2831 17.9839 14.8435 18.8473 15.1548C19.7107 15.4661 20.6471 15.5144 21.538 15.2936C22.1268 15.1476 22.6783 14.8884 23.163 14.5335C23.5766 14.2306 23.545 13.6343 23.1661 13.2892V13.2892C22.7871 12.944 22.2033 12.9894 21.7531 13.2345C21.5455 13.3476 21.3233 13.4344 21.0913 13.4919C20.5568 13.6244 19.995 13.5954 19.477 13.4086C18.9589 13.2218 18.5079 12.8856 18.1809 12.4425C17.8539 11.9993 17.6657 11.4692 17.64 10.9191C17.6144 10.369 17.7524 9.82363 18.0367 9.35197C18.3209 8.88031 18.7387 8.50354 19.2371 8.26931C19.7355 8.03507 20.2922 7.95389 20.8367 8.03603C21.073 8.07166 21.3023 8.13735 21.5196 8.23059C21.9906 8.43276 22.5761 8.42355 22.9213 8.04458V8.04458Z" fill="#D48901"/>
    <path d="M47.8782 4.13235C46.338 2.1013 44.1081 0.703803 41.6087 0.203279C39.1093 -0.297245 36.5132 0.133782 34.3097 1.41511L36.4092 5.02565C37.7313 4.25685 39.289 3.99823 40.7886 4.29855C42.2882 4.59886 43.6262 5.43736 44.5503 6.65599L47.8782 4.13235Z" fill="#D48901"/>
    <path d="M30.236 15.1443C31.0094 16.6775 32.1491 17.9962 33.554 18.9837C34.9588 19.9712 36.5856 20.597 38.2901 20.8056C39.9946 21.0142 41.7242 20.7991 43.3258 20.1796C44.9273 19.56 46.3513 18.555 47.4716 17.2535L44.3063 14.5287C43.6341 15.3096 42.7797 15.9126 41.8188 16.2843C40.8579 16.6561 39.8201 16.7851 38.7974 16.6599C37.7747 16.5348 36.7987 16.1593 35.9557 15.5668C35.1128 14.9743 34.429 14.1831 33.965 13.2632L30.236 15.1443Z" fill="#D48901"/>
    <path d="M6.8926 9.06916C7.22954 8.82437 7.70113 8.89906 7.94593 9.23599V9.23599C8.19073 9.57293 8.11604 10.0445 7.7791 10.2893L5.46286 11.9722C5.12592 12.217 4.65433 12.1423 4.40953 11.8053V11.8053C4.16474 11.4684 4.23943 10.9968 4.57637 10.752L6.8926 9.06916Z" fill="#CC0808"/>
    <path d="M4.55564 11.9887C4.2187 11.7439 4.14401 11.2723 4.3888 10.9354V10.9354C4.6336 10.5985 5.10519 10.5238 5.44213 10.7686L7.69476 12.4052C8.0317 12.65 8.10639 13.1216 7.86159 13.4585V13.4585C7.61679 13.7955 7.1452 13.8701 6.80826 13.6253L4.55564 11.9887Z" fill="#00B2FF"/>
    <path d="M12.2876 12.7723C11.9506 13.0171 11.479 12.9424 11.2342 12.6055V12.6055C10.9894 12.2686 11.0641 11.797 11.4011 11.5522L13.7173 9.86932C14.0543 9.62452 14.5258 9.69922 14.7706 10.0362V10.0362C15.0154 10.3731 14.9407 10.8447 14.6038 11.0895L12.2876 12.7723Z" fill="#FFC500"/>
    <path d="M14.6267 9.85302C14.9637 10.0978 15.0384 10.5694 14.7936 10.9063V10.9063C14.5488 11.2433 14.0772 11.318 13.7402 11.0732L11.4876 9.43654C11.1507 9.19174 11.076 8.72015 11.3208 8.38322V8.38322C11.5656 8.04628 12.0372 7.97159 12.3741 8.21639L14.6267 9.85302Z" fill="#008000"/>
    <rect x="9.71069" y="7.05127" width="1.62421" height="7.62091" rx="0.812107" transform="rotate(14 9.71069 7.05127)" fill="#9B9B9B"/>
</svg>
